<svg width="740" height="501" viewBox="0 0 740 501" fill="none" xmlns="http://www.w3.org/2000/svg">
<g clip-path="url(#clip0_3206_90710)">
<path d="M0 500.275H740V0.775384H0V500.275Z" fill="white"/>
<path d="M682.61 408.845C682.61 414.728 542.649 419.496 370 419.496C197.35 419.496 57.3901 414.728 57.3901 408.845C57.3901 402.962 197.35 398.191 370 398.191C542.649 398.191 682.61 402.962 682.61 408.845Z" fill="#77AAE9"/>
<path d="M669.135 402.201C669.135 409.046 538.957 414.594 378.377 414.594C217.795 414.594 87.6187 409.046 87.6187 402.201C87.6187 395.359 217.795 389.811 378.377 389.811C538.957 389.811 669.135 395.359 669.135 402.201Z" fill="#4992CE"/>
<path d="M606.25 403.754C620.458 403.754 629.73 389.336 629.75 372.713C629.925 230.947 600.399 84.7573 419.513 75.5196C208.04 64.7205 128.885 109.935 104.699 316.94C99.326 362.931 85.6696 404.563 169.95 403.754H606.25Z" fill="#F2F8FE"/>
<path d="M266.173 384.556C266.173 384.556 268.255 359.334 244.4 354.943C220.543 350.553 158.932 309.135 134.963 315.062C124.872 317.556 134.21 346.039 128.114 361.273C122.978 374.112 96.6941 398.618 115.767 403.764H269.027L266.173 384.556" fill="#BCDEF9"/>
<path d="M269.027 403.766H184.208C178.378 400.507 172.789 396.558 168.378 391.849C151.754 374.101 169.549 322.141 169.549 322.141C173.318 323.666 177.182 325.345 181.093 327.119C173.301 336.327 168.378 347.74 168.378 358.046C168.378 365.984 170.756 372.311 174.963 377.155C174.966 377.155 174.966 377.155 174.966 377.155C174.965 377.155 174.966 377.158 174.967 377.158C182.396 385.71 195.528 389.637 211.353 389.637C223.604 389.637 235.178 387.281 243.751 382.251L238.198 403.549H268.995L269.027 403.766" fill="#9FC8F2"/>
<path d="M253.694 344.125C253.694 344.125 290.793 340.371 307.285 334.325C323.777 328.277 299.039 403.547 299.039 403.547H238.198L253.694 344.125Z" fill="#89503D"/>
<path d="M258.159 358.046C258.159 379.995 236.146 389.637 211.353 389.637C186.561 389.637 168.378 379.995 168.378 358.046C168.378 336.1 190.701 309.137 215.493 309.137C240.286 309.137 258.159 336.1 258.159 358.046Z" fill="#9E5C46"/>
<path d="M248.869 329.127C248.869 329.127 253.504 398.25 174.966 377.155C96.4267 356.06 174.966 377.155 174.966 377.155C174.966 377.155 181.755 404.858 218.013 396.679C254.271 388.502 265.177 371.494 264.903 359.415C264.631 347.336 248.869 329.127 248.869 329.127Z" fill="#8A4F3D"/>
<path d="M222.744 309.982C215.534 308.1 208.099 307.079 200.649 306.948C198.657 306.913 196.615 306.95 194.751 307.656C194.446 307.772 194.114 307.94 194.02 308.253C193.867 308.763 194.44 309.185 194.943 309.365C195.728 309.644 196.562 309.78 197.394 309.765C194.749 310.012 192.104 310.261 189.459 310.51C187.219 310.72 184.732 311.055 183.303 312.794C182.944 313.231 182.711 313.961 183.164 314.301C183.357 314.444 183.614 314.459 183.855 314.469C185.573 314.535 187.291 314.602 189.01 314.666C185.307 315.342 181.765 316.876 178.738 319.111C178.406 319.355 178.059 319.641 177.973 320.046C177.778 320.959 178.955 321.499 179.877 321.644C185.616 322.545 191.471 322.042 197.257 321.533C201.949 321.124 206.658 320.71 211.25 319.661C213.568 319.131 215.927 318.401 217.724 316.842C219.521 315.283 220.624 312.713 219.842 310.465L222.744 309.982" fill="#9E5C46"/>
<path d="M191.428 360.076C191.428 360.076 197.669 364.075 200.985 357.54C200.985 357.54 197.669 361.147 191.428 360.076Z" fill="#231F20"/>
<path d="M227.524 354.945C227.524 354.945 231.745 360.416 238.198 355.926C238.198 355.926 233.168 357.766 227.524 354.945Z" fill="#231F20"/>
<path d="M225.756 351.553C228.744 348.166 246.891 351.701 253.694 353.169C253.643 343.675 247.759 335.137 236.262 337.725C230.911 338.929 226.008 341.997 220.76 343.633C220.254 343.073 219.577 342.648 218.914 342.264C217.942 341.699 216.956 341.159 215.957 340.646C215.459 340.389 214.845 340.142 214.371 340.438C213.962 340.695 213.859 341.275 214.008 341.733C214.157 342.195 214.497 342.562 214.828 342.915C213.225 341.413 211.488 340.056 209.646 338.86C209.411 338.709 209.122 338.554 208.867 338.667C208.74 338.724 208.648 338.84 208.585 338.966C208.299 339.538 208.567 340.226 208.903 340.771C209.487 341.721 210.282 342.537 211.209 343.157C209.707 342.227 208.146 341.393 206.531 340.675C205.278 340.118 203.959 339.622 202.588 339.614C202.312 339.612 201.983 339.666 201.87 339.918C201.774 340.13 201.889 340.379 202.017 340.574C202.781 341.741 204.061 342.451 205.32 343.051C205.461 343.117 205.602 343.184 205.743 343.25C206.782 343.729 207.842 344.163 208.918 344.553C203.881 344.143 198.972 343.208 194.07 343.366C190.56 343.477 187.053 344.148 183.504 345.974C176.572 349.538 173.398 355.682 174.273 362.542C179.971 359.042 196.427 350.816 202.437 354.821C208.612 358.938 189.506 373.746 183.324 378.314C200.398 392.882 234.291 387.026 247.92 369.301C231.892 368.507 222.321 355.446 225.756 351.553" fill="#ECC18F"/>
<path d="M225.015 376.124C225.589 377.024 225.862 378.139 225.649 379.185C225.603 379.41 225.533 379.637 225.386 379.814C225.14 380.108 224.725 380.206 224.342 380.197C223.268 380.167 222.268 379.336 222.041 378.287C221.915 377.705 221.918 376.953 221.37 376.719C221.199 376.645 221.005 376.647 220.822 376.679C219.968 376.83 219.31 377.619 218.446 377.686C217.335 377.769 216.487 376.65 215.392 376.445C215.072 376.386 214.733 376.405 214.434 376.277C214.134 376.149 213.891 375.791 214.044 375.503C214.182 375.244 214.533 375.207 214.827 375.202C216.479 375.165 218.127 374.985 219.749 374.671C220.493 374.526 221.222 374.321 221.962 374.161C222.474 374.047 222.871 374.138 223.31 374.425C223.983 374.866 224.583 375.443 225.015 376.124" fill="white"/>
<path d="M219.795 374.261C219.044 374.384 218.282 374.424 217.531 374.518L216.397 374.596C216.212 374.616 216.026 374.628 215.841 374.636C215.314 373.21 215.188 371.042 215.194 369.227C218.26 368.903 220.581 366.979 220.42 364.841C220.254 362.643 217.533 361.057 214.341 361.299C211.15 361.54 208.697 363.516 208.863 365.712C209.008 367.64 211.121 369.096 213.792 369.261C213.791 371.017 213.913 373.107 214.386 374.693C213.162 374.732 211.935 374.737 210.702 374.7C209.172 374.661 207.642 374.574 206.073 374.463C207.501 375.139 209.044 375.536 210.598 375.793C212.156 376.049 213.743 376.131 215.325 376.059C216.116 376.039 216.904 375.931 217.689 375.84C218.079 375.766 218.469 375.699 218.857 375.62C219.051 375.578 219.246 375.549 219.438 375.499L220.011 375.341C221.545 374.954 223.013 374.313 224.366 373.519C222.803 373.768 221.315 374.096 219.795 374.261" fill="#352F31"/>
<path d="M193.719 348.341C192.906 348.423 192.108 348.566 191.338 348.778C190.557 348.992 189.683 349.468 189.287 350.208C188.857 351.015 189.174 351.73 190.148 351.748C194.019 351.819 197.865 351.252 201.74 351.373C202.123 351.385 202.513 351.402 202.885 351.304C205.219 350.699 202.251 349.175 201.353 348.968C198.948 348.415 196.261 348.087 193.719 348.341Z" fill="#9E5C46"/>
<path d="M228.155 344.213C227.342 344.294 226.544 344.435 225.774 344.647C224.993 344.864 224.119 345.338 223.723 346.08C223.293 346.884 223.61 347.6 224.584 347.617C228.455 347.688 232.301 347.121 236.176 347.244C236.56 347.257 236.95 347.271 237.321 347.175C239.656 346.568 236.687 345.044 235.79 344.839C233.384 344.287 230.698 343.959 228.155 344.213" fill="#9E5C46"/>
<path d="M207.092 309.136C205.842 308.826 204.588 308.537 203.331 308.275C202.075 308.016 200.81 307.777 199.55 307.654C199.235 307.624 198.921 307.602 198.613 307.6C198.307 307.597 197.995 307.612 197.743 307.681C197.619 307.711 197.515 307.772 197.506 307.797L197.504 307.817C197.508 307.831 197.502 307.827 197.512 307.861L197.531 307.945C197.594 308.164 197.741 308.347 197.957 308.495C198.389 308.796 198.997 308.941 199.595 309.02C200.196 309.097 200.835 309.114 201.432 309.077C201.681 309.062 201.895 309.252 201.91 309.501C201.925 309.746 201.744 309.955 201.504 309.977L201.491 309.98C199.809 310.145 198.119 310.32 196.442 310.547C194.766 310.779 193.09 311.021 191.454 311.374C190.64 311.551 189.824 311.753 189.087 312.04C188.906 312.114 188.73 312.193 188.574 312.279C188.421 312.363 188.285 312.464 188.225 312.53C188.198 312.545 188.176 312.674 188.179 312.651L188.175 312.646L188.183 312.661L188.226 312.698C188.251 312.711 188.275 312.728 188.298 312.743C188.544 312.873 188.941 312.952 189.326 312.997C189.718 313.041 190.128 313.056 190.538 313.056C191.358 313.056 192.203 312.999 193.018 312.908H193.029C193.324 312.876 193.589 313.088 193.622 313.381C193.651 313.643 193.485 313.882 193.24 313.956C191.468 314.477 189.696 315.039 187.947 315.646C186.2 316.25 184.449 316.877 182.808 317.673C182.401 317.876 181.999 318.088 181.645 318.337C181.472 318.46 181.303 318.598 181.199 318.732C181.146 318.798 181.122 318.86 181.118 318.885C181.115 318.904 181.111 318.914 181.147 318.961C181.191 319.003 181.26 319.057 181.348 319.097C181.433 319.141 181.549 319.181 181.649 319.223L181.959 319.346C182.064 319.383 182.173 319.41 182.28 319.445L182.603 319.538L182.935 319.607C183.046 319.63 183.157 319.654 183.268 319.674L183.607 319.718C185.418 319.933 187.294 319.738 189.099 319.294C188.221 319.61 187.312 319.844 186.386 319.997C185.461 320.148 184.515 320.222 183.565 320.16L183.208 320.135C183.09 320.123 182.971 320.103 182.853 320.088L182.497 320.037L182.145 319.958C182.027 319.93 181.909 319.906 181.792 319.874L181.447 319.758C181.33 319.716 181.222 319.689 181.097 319.632C180.972 319.578 180.842 319.506 180.716 319.39C180.589 319.272 180.475 319.055 180.494 318.84C180.509 318.633 180.594 318.478 180.676 318.357C180.848 318.115 181.043 317.952 181.239 317.794C181.633 317.488 182.045 317.244 182.461 317.012C183.295 316.554 184.154 316.169 185.016 315.796C185.88 315.429 186.749 315.081 187.625 314.75C189.38 314.099 191.144 313.495 192.931 312.928L193.153 313.973C192.278 314.077 191.423 314.141 190.541 314.149C190.102 314.151 189.659 314.139 189.205 314.092C188.75 314.035 188.29 313.978 187.773 313.722L187.574 313.599C187.506 313.547 187.439 313.485 187.375 313.426C187.312 313.347 187.248 313.275 187.198 313.182C187.154 313.083 187.1 312.987 187.087 312.878C187.068 312.772 187.054 312.664 187.067 312.57C187.074 312.471 187.088 312.375 187.116 312.299C187.15 312.148 187.257 311.938 187.369 311.81C187.592 311.556 187.817 311.42 188.034 311.297C188.252 311.179 188.466 311.087 188.68 311.004C189.533 310.678 190.377 310.481 191.225 310.301C192.919 309.95 194.616 309.711 196.316 309.524C198.018 309.339 199.714 309.176 201.426 309.077L201.484 309.98C200.797 309.995 200.144 309.955 199.472 309.847C198.809 309.726 198.122 309.566 197.501 309.109C197.197 308.882 196.925 308.527 196.835 308.118C196.818 308.016 196.792 307.925 196.801 307.767C196.81 307.619 196.88 307.459 196.978 307.35C197.184 307.128 197.4 307.077 197.584 307.032C197.96 306.953 198.298 306.963 198.634 306.98C198.968 307 199.296 307.037 199.62 307.087C200.913 307.291 202.165 307.612 203.409 307.96C204.65 308.312 205.878 308.705 207.092 309.136" fill="#ECC18F"/>
<path d="M275.576 403.547C275.576 403.547 281.999 340.778 287.495 333.978C292.993 327.177 379.455 312.387 412.831 309.136C551.162 295.665 662.187 400.109 637.372 403.205C629.412 404.196 584.896 403.547 584.896 403.547H275.576" fill="#BCDEF9"/>
<path d="M352.168 343.605C353.246 343.605 354.379 343.137 355.143 342.375C355.871 341.644 356.421 340.448 356.374 339.4C356.325 338.312 355.967 337.185 355.143 336.427C354.319 335.67 353.308 335.194 352.168 335.194C351.09 335.194 349.958 335.663 349.194 336.427C348.466 337.155 347.916 338.351 347.963 339.4C348.012 340.488 348.37 341.615 349.194 342.375C350.017 343.129 351.029 343.605 352.168 343.605Z" fill="white"/>
<path d="M374.44 372.496C375.518 372.496 376.65 372.027 377.414 371.265C378.142 370.535 378.692 369.339 378.645 368.29C378.596 367.205 378.238 366.075 377.414 365.318C376.591 364.563 375.579 364.085 374.44 364.085C373.362 364.085 372.23 364.556 371.465 365.318C370.737 366.048 370.187 367.245 370.234 368.29C370.283 369.378 370.641 370.508 371.465 371.265C372.289 372.02 373.3 372.496 374.44 372.496Z" fill="white"/>
<path d="M403.332 326.148C404.41 326.148 405.545 325.68 406.307 324.918C407.037 324.187 407.585 322.991 407.538 321.943C407.491 320.855 407.133 319.728 406.307 318.97C405.483 318.216 404.472 317.737 403.332 317.737C402.254 317.737 401.122 318.208 400.36 318.97C399.63 319.701 399.079 320.897 399.126 321.943C399.176 323.031 399.533 324.16 400.36 324.918C401.181 325.672 402.192 326.148 403.332 326.148" fill="white"/>
<path d="M385.878 346.615C386.956 346.615 388.088 346.147 388.85 345.384C389.58 344.654 390.13 343.458 390.083 342.41C390.034 341.322 389.676 340.195 388.85 339.437C388.026 338.68 387.015 338.204 385.878 338.204C384.797 338.204 383.665 338.675 382.903 339.437C382.173 340.165 381.625 341.364 381.672 342.41C381.719 343.497 382.077 344.627 382.903 345.384C383.724 346.139 384.738 346.615 385.878 346.615Z" fill="white"/>
<path d="M372.032 319.529C373.11 319.529 374.243 319.061 375.005 318.298C375.735 317.568 376.285 316.372 376.238 315.324C376.189 314.236 375.831 313.109 375.005 312.351C374.183 311.594 373.172 311.118 372.032 311.118C370.954 311.118 369.82 311.587 369.058 312.351C368.33 313.079 367.78 314.275 367.827 315.324C367.876 316.411 368.231 317.539 369.058 318.298C369.881 319.053 370.893 319.529 372.032 319.529Z" fill="white"/>
<path d="M308.227 345.41C309.305 345.41 310.44 344.941 311.202 344.179C311.93 343.449 312.48 342.253 312.433 341.204C312.384 340.117 312.028 338.989 311.202 338.232C310.378 337.475 309.367 336.999 308.227 336.999C307.149 336.999 306.017 337.47 305.255 338.232C304.525 338.96 303.975 340.159 304.022 341.204C304.071 342.292 304.429 343.42 305.255 344.179C306.076 344.934 307.088 345.41 308.227 345.41Z" fill="white"/>
<path d="M329.295 380.926C330.373 380.926 331.505 380.457 332.27 379.692C332.997 378.965 333.547 377.768 333.501 376.72C333.451 375.632 333.094 374.505 332.27 373.745C331.446 372.991 330.434 372.514 329.295 372.514C328.217 372.514 327.085 372.983 326.32 373.745C325.592 374.475 325.042 375.672 325.089 376.72C325.139 377.808 325.496 378.935 326.32 379.692C327.144 380.45 328.155 380.926 329.295 380.926Z" fill="white"/>
<path d="M327.489 354.441C328.567 354.441 329.699 353.97 330.464 353.208C331.192 352.48 331.742 351.282 331.695 350.236C331.646 349.148 331.288 348.018 330.464 347.261C329.64 346.506 328.629 346.03 327.489 346.03C326.411 346.03 325.279 346.499 324.514 347.261C323.787 347.991 323.237 349.187 323.284 350.236C323.333 351.324 323.691 352.451 324.514 353.208C325.338 353.965 326.35 354.441 327.489 354.441Z" fill="white"/>
<path d="M293.178 372.496C294.258 372.496 295.391 372.027 296.153 371.265C296.883 370.535 297.43 369.339 297.384 368.29C297.337 367.205 296.979 366.075 296.153 365.318C295.329 364.563 294.318 364.085 293.178 364.085C292.1 364.085 290.968 364.556 290.206 365.318C289.475 366.048 288.925 367.245 288.972 368.29C289.022 369.378 289.379 370.508 290.206 371.265C291.027 372.02 292.038 372.496 293.178 372.496Z" fill="white"/>
<path d="M299.199 395.973C300.277 395.973 301.409 395.504 302.172 394.742C302.902 394.012 303.452 392.815 303.405 391.767C303.356 390.682 302.998 389.552 302.172 388.795C301.35 388.04 300.339 387.564 299.199 387.564C298.119 387.564 296.987 388.032 296.224 388.795C295.494 389.525 294.947 390.721 294.994 391.767C295.04 392.855 295.398 393.985 296.224 394.742C297.048 395.497 298.06 395.973 299.199 395.973Z" fill="white"/>
<path d="M358.843 394.828C359.921 394.828 361.056 394.359 361.818 393.597C362.548 392.867 363.096 391.671 363.049 390.622C363.002 389.535 362.644 388.407 361.818 387.648C360.994 386.893 359.983 386.417 358.843 386.417C357.765 386.417 356.633 386.885 355.871 387.648C355.141 388.378 354.591 389.574 354.638 390.622C354.687 391.71 355.045 392.838 355.871 393.597C356.692 394.352 357.704 394.828 358.843 394.828Z" fill="white"/>
<path d="M351.456 365.277C352.533 365.277 353.668 364.809 354.43 364.044C355.158 363.316 355.708 362.118 355.661 361.072C355.612 359.984 355.257 358.854 354.43 358.097C353.606 357.342 352.595 356.866 351.456 356.866C350.378 356.866 349.245 357.335 348.483 358.097C347.753 358.827 347.203 360.023 347.25 361.072C347.299 362.159 347.657 363.287 348.483 364.044C349.305 364.801 350.316 365.277 351.456 365.277Z" fill="white"/>
<path d="M420.409 373.486C421.489 373.486 422.621 373.015 423.383 372.253C424.114 371.523 424.661 370.327 424.614 369.281C424.567 368.193 424.21 367.063 423.383 366.306C422.56 365.551 421.548 365.075 420.409 365.075C419.331 365.075 418.199 365.544 417.436 366.306C416.706 367.036 416.156 368.232 416.203 369.281C416.252 370.368 416.61 371.496 417.436 372.253C418.258 373.008 419.269 373.486 420.409 373.486Z" fill="white"/>
<path d="M436.005 336.545C437.086 336.545 438.218 336.076 438.98 335.314C439.71 334.584 440.258 333.388 440.211 332.339C440.164 331.251 439.806 330.124 438.98 329.364C438.156 328.61 437.145 328.134 436.005 328.134C434.927 328.134 433.795 328.602 433.033 329.364C432.303 330.095 431.753 331.291 431.8 332.339C431.849 333.427 432.207 334.554 433.033 335.314C433.854 336.069 434.866 336.545 436.005 336.545Z" fill="white"/>
<path d="M406.455 349.682C407.533 349.682 408.665 349.211 409.429 348.448C410.157 347.721 410.707 346.522 410.66 345.476C410.611 344.388 410.253 343.258 409.429 342.501C408.606 341.746 407.594 341.27 406.455 341.27C405.377 341.27 404.245 341.739 403.48 342.501C402.752 343.231 402.202 344.428 402.249 345.476C402.298 346.564 402.656 347.691 403.48 348.448C404.304 349.206 405.315 349.682 406.455 349.682Z" fill="white"/>
<path d="M401.529 395.65C402.607 395.65 403.742 395.182 404.504 394.417C405.234 393.689 405.782 392.493 405.735 391.445C405.685 390.357 405.33 389.23 404.504 388.47C403.68 387.715 402.669 387.239 401.529 387.239C400.451 387.239 399.319 387.708 398.557 388.47C397.827 389.2 397.276 390.396 397.323 391.445C397.373 392.533 397.73 393.66 398.557 394.417C399.378 395.174 400.389 395.65 401.529 395.65" fill="white"/>
<path d="M462.275 406.32C463.353 406.32 464.485 405.852 465.248 405.089C465.978 404.359 466.528 403.163 466.481 402.115C466.432 401.027 466.074 399.9 465.248 399.14C464.426 398.385 463.415 397.909 462.275 397.909C461.197 397.909 460.063 398.378 459.301 399.14C458.57 399.87 458.023 401.066 458.07 402.115C458.117 403.202 458.474 404.33 459.301 405.089C460.124 405.844 461.136 406.32 462.275 406.32Z" fill="white"/>
<path d="M476.229 361.994C477.307 361.994 478.439 361.523 479.204 360.761C479.932 360.031 480.482 358.834 480.435 357.788C480.386 356.701 480.028 355.571 479.204 354.814C478.38 354.059 477.369 353.583 476.229 353.583C475.151 353.583 474.019 354.051 473.254 354.814C472.527 355.544 471.977 356.74 472.024 357.788C472.073 358.874 472.431 360.004 473.254 360.761C474.078 361.516 475.09 361.994 476.229 361.994Z" fill="white"/>
<path d="M440.931 387.441C442.009 387.441 443.144 386.973 443.906 386.211C444.634 385.48 445.184 384.284 445.137 383.236C445.088 382.148 444.73 381.021 443.906 380.261C443.082 379.506 442.071 379.03 440.931 379.03C439.853 379.03 438.721 379.499 437.957 380.261C437.229 380.991 436.679 382.187 436.726 383.236C436.775 384.324 437.133 385.451 437.957 386.211C438.78 386.965 439.792 387.441 440.931 387.441Z" fill="white"/>
<path d="M447.498 360.35C448.578 360.35 449.71 359.881 450.472 359.119C451.202 358.389 451.75 357.192 451.703 356.144C451.656 355.056 451.299 353.929 450.472 353.169C449.648 352.414 448.637 351.938 447.498 351.938C446.42 351.938 445.287 352.407 444.525 353.169C443.795 353.899 443.245 355.096 443.292 356.144C443.341 357.232 443.699 358.359 444.525 359.119C445.347 359.874 446.358 360.35 447.498 360.35Z" fill="white"/>
<path d="M474.587 314.383C475.667 314.383 476.799 313.914 477.561 313.149C478.292 312.422 478.839 311.225 478.792 310.177C478.745 309.089 478.388 307.962 477.561 307.202C476.738 306.448 475.726 305.971 474.587 305.971C473.509 305.971 472.376 306.44 471.614 307.202C470.884 307.932 470.334 309.129 470.381 310.177C470.43 311.265 470.788 312.392 471.614 313.149C472.436 313.907 473.447 314.383 474.587 314.383Z" fill="white"/>
<path d="M436.827 318.486C437.905 318.486 439.039 318.018 439.802 317.253C440.529 316.525 441.079 315.327 441.033 314.281C440.983 313.193 440.628 312.066 439.802 311.306C438.978 310.551 437.966 310.075 436.827 310.075C435.749 310.075 434.617 310.544 433.855 311.306C433.124 312.036 432.574 313.232 432.621 314.281C432.671 315.368 433.028 316.496 433.855 317.253C434.676 318.01 435.687 318.486 436.827 318.486Z" fill="white"/>
<path d="M533.69 366.096C534.768 366.096 535.903 365.627 536.665 364.865C537.395 364.135 537.943 362.938 537.896 361.893C537.846 360.802 537.491 359.675 536.665 358.918C535.841 358.163 534.83 357.687 533.69 357.687C532.612 357.687 531.48 358.156 530.718 358.918C529.988 359.648 529.438 360.844 529.484 361.893C529.534 362.978 529.891 364.108 530.718 364.865C531.539 365.62 532.551 366.096 533.69 366.096Z" fill="white"/>
<path d="M515.632 334.902C516.71 334.902 517.842 334.434 518.607 333.671C519.334 332.941 519.884 331.745 519.837 330.699C519.788 329.611 519.43 328.482 518.607 327.724C517.783 326.97 516.771 326.493 515.632 326.493C514.554 326.493 513.419 326.962 512.657 327.724C511.929 328.454 511.379 329.651 511.426 330.699C511.475 331.787 511.831 332.914 512.657 333.671C513.481 334.426 514.492 334.902 515.632 334.902Z" fill="white"/>
<path d="M474.587 337.367C475.667 337.367 476.799 336.899 477.561 336.136C478.292 335.406 478.839 334.21 478.792 333.162C478.745 332.074 478.388 330.946 477.561 330.187C476.738 329.432 475.726 328.956 474.587 328.956C473.509 328.956 472.376 329.425 471.614 330.187C470.884 330.917 470.334 332.113 470.381 333.162C470.43 334.249 470.788 335.377 471.614 336.136C472.436 336.891 473.447 337.367 474.587 337.367Z" fill="white"/>
<path d="M503.318 353.785C504.396 353.785 505.528 353.314 506.293 352.552C507.021 351.824 507.571 350.625 507.524 349.579C507.475 348.492 507.117 347.362 506.293 346.605C505.469 345.85 504.458 345.374 503.318 345.374C502.24 345.374 501.108 345.842 500.343 346.605C499.616 347.335 499.066 348.531 499.113 349.579C499.162 350.667 499.52 351.795 500.343 352.552C501.167 353.309 502.179 353.785 503.318 353.785Z" fill="white"/>
<path d="M507.423 389.902C508.501 389.902 509.633 389.434 510.398 388.671C511.125 387.941 511.675 386.745 511.628 385.697C511.579 384.609 511.222 383.482 510.398 382.724C509.574 381.967 508.562 381.491 507.423 381.491C506.345 381.491 505.213 381.962 504.448 382.724C503.72 383.452 503.17 384.651 503.217 385.697C503.266 386.784 503.624 387.914 504.448 388.671C505.272 389.426 506.283 389.902 507.423 389.902Z" fill="white"/>
<path d="M480.334 388.262C481.412 388.262 482.544 387.793 483.309 387.028C484.036 386.301 484.586 385.102 484.54 384.056C484.49 382.968 484.133 381.841 483.309 381.081C482.485 380.326 481.474 379.85 480.334 379.85C479.256 379.85 478.121 380.319 477.359 381.081C476.631 381.811 476.081 383.008 476.128 384.056C476.178 385.144 476.535 386.271 477.359 387.028C478.183 387.786 479.194 388.262 480.334 388.262Z" fill="white"/>
<path d="M541.899 398.932C542.977 398.932 544.112 398.463 544.874 397.701C545.602 396.971 546.152 395.774 546.105 394.726C546.056 393.638 545.7 392.511 544.874 391.751C544.05 390.996 543.039 390.52 541.899 390.52C540.821 390.52 539.689 390.989 538.925 391.751C538.197 392.481 537.647 393.678 537.694 394.726C537.743 395.814 538.101 396.941 538.925 397.701C539.748 398.456 540.76 398.932 541.899 398.932Z" fill="white"/>
<path d="M559.958 375.949C561.038 375.949 562.171 375.481 562.933 374.718C563.663 373.988 564.21 372.792 564.164 371.744C564.117 370.656 563.759 369.528 562.933 368.769C562.109 368.014 561.098 367.538 559.958 367.538C558.88 367.538 557.748 368.007 556.986 368.769C556.255 369.499 555.705 370.695 555.752 371.744C555.802 372.831 556.159 373.959 556.986 374.718C557.807 375.473 558.818 375.949 559.958 375.949Z" fill="white"/>
<path d="M545.183 348.859C546.261 348.859 547.395 348.391 548.157 347.629C548.887 346.898 549.435 345.702 549.388 344.654C549.339 343.566 548.984 342.439 548.157 341.679C547.333 340.924 546.322 340.448 545.183 340.448C544.105 340.448 542.972 340.917 542.21 341.679C541.48 342.409 540.93 343.605 540.977 344.654C541.026 345.742 541.384 346.869 542.21 347.629C543.032 348.383 544.043 348.859 545.183 348.859Z" fill="white"/>
<path d="M602.644 381.693C603.724 381.693 604.856 381.225 605.619 380.462C606.349 379.732 606.896 378.536 606.849 377.488C606.803 376.402 606.445 375.273 605.619 374.515C604.795 373.761 603.783 373.282 602.644 373.282C601.566 373.282 600.434 373.753 599.671 374.515C598.941 375.245 598.391 376.442 598.438 377.488C598.487 378.575 598.845 379.705 599.671 380.462C600.493 381.217 601.504 381.693 602.644 381.693Z" fill="white"/>
<path d="M578.019 357.889C579.097 357.889 580.229 357.418 580.991 356.655C581.721 355.928 582.271 354.729 582.225 353.683C582.175 352.595 581.818 351.465 580.991 350.708C580.17 349.953 579.158 349.477 578.019 349.477C576.941 349.477 575.806 349.946 575.044 350.708C574.314 351.438 573.766 352.635 573.813 353.683C573.86 354.771 574.218 355.898 575.044 356.655C575.868 357.41 576.879 357.889 578.019 357.889Z" fill="white"/>
<path d="M577.197 399.756C578.275 399.756 579.408 399.287 580.172 398.523C580.9 397.795 581.45 396.599 581.403 395.55C581.354 394.462 580.996 393.335 580.172 392.575C579.348 391.821 578.337 391.345 577.197 391.345C576.12 391.345 574.987 391.813 574.223 392.575C573.495 393.306 572.945 394.502 572.992 395.55C573.041 396.638 573.399 397.765 574.223 398.523C575.047 399.28 576.058 399.756 577.197 399.756" fill="white"/>
<path d="M609.212 399.756C610.29 399.756 611.423 399.287 612.185 398.523C612.915 397.795 613.465 396.599 613.418 395.55C613.369 394.462 613.011 393.335 612.185 392.575C611.363 391.821 610.352 391.345 609.212 391.345C608.134 391.345 607 391.813 606.238 392.575C605.507 393.306 604.96 394.502 605.007 395.55C605.054 396.638 605.411 397.765 606.238 398.523C607.061 399.28 608.073 399.756 609.212 399.756" fill="white"/>
<path d="M327.65 401.395C328.728 401.395 329.862 400.926 330.624 400.164C331.355 399.434 331.902 398.237 331.855 397.189C331.808 396.101 331.451 394.974 330.624 394.217C329.801 393.462 328.789 392.983 327.65 392.983C326.572 392.983 325.439 393.454 324.677 394.217C323.947 394.944 323.397 396.143 323.444 397.189C323.493 398.277 323.851 399.406 324.677 400.164C325.499 400.918 326.51 401.395 327.65 401.395" fill="white"/>
<path d="M330.114 334.084C331.192 334.084 332.324 333.615 333.086 332.851C333.816 332.123 334.367 330.927 334.32 329.878C334.27 328.791 333.913 327.661 333.086 326.904C332.265 326.149 331.254 325.673 330.114 325.673C329.036 325.673 327.901 326.141 327.139 326.904C326.409 327.634 325.861 328.83 325.908 329.878C325.955 330.966 326.313 332.093 327.139 332.851C327.963 333.608 328.974 334.084 330.114 334.084Z" fill="white"/>
<path d="M613.068 403.754C599.217 403.754 584.896 403.547 584.896 403.547H466.227C466.405 403.076 466.501 402.582 466.481 402.116C466.432 401.028 466.074 399.901 465.248 399.141C464.426 398.386 463.415 397.91 462.275 397.91C461.198 397.91 460.063 398.379 459.301 399.141C458.571 399.871 458.023 401.068 458.07 402.116C458.09 402.597 458.171 403.085 458.329 403.547H275.576C275.576 403.547 281.999 340.777 287.495 333.977C288.889 332.255 295.484 330.018 305.097 327.586L305.102 327.583C305.102 327.583 306.483 331.461 309.569 337.233C309.147 337.082 308.698 337.001 308.227 337.001C307.149 337.001 306.017 337.472 305.255 338.234C304.525 338.962 303.975 340.161 304.022 341.207C304.071 342.294 304.429 343.422 305.255 344.181C306.076 344.936 307.088 345.412 308.227 345.412C309.305 345.412 310.44 344.944 311.202 344.181C311.727 343.654 312.162 342.884 312.344 342.102C322.443 358.821 343.957 384.292 382.096 386.546C387.079 386.84 393.204 387.143 400.241 387.452C399.607 387.659 399.015 388.012 398.557 388.47C397.826 389.201 397.276 390.397 397.323 391.445C397.373 392.533 397.73 393.66 398.557 394.418C399.378 395.175 400.389 395.651 401.529 395.651C402.607 395.651 403.741 395.182 404.504 394.418C405.234 393.69 405.781 392.494 405.735 391.445C405.685 390.357 405.33 389.23 404.504 388.47C404.097 388.096 403.64 387.79 403.147 387.578C437.266 389.03 490.645 390.592 538.824 391.862C538.145 392.597 537.649 393.732 537.694 394.728C537.743 395.816 538.101 396.943 538.925 397.703C539.749 398.458 540.76 398.934 541.899 398.934C542.977 398.934 544.112 398.465 544.874 397.703C545.602 396.973 546.152 395.777 546.105 394.728C546.063 393.764 545.777 392.77 545.138 392.027C555.121 392.289 564.837 392.536 574.045 392.767C573.406 393.502 572.95 394.588 572.992 395.55C573.041 396.638 573.399 397.765 574.223 398.522C575.047 399.279 576.058 399.755 577.197 399.755C578.275 399.755 579.408 399.287 580.172 398.522C580.9 397.794 581.45 396.598 581.403 395.55C581.361 394.62 581.095 393.66 580.5 392.928C589.474 393.15 597.89 393.354 605.527 393.537C605.187 394.164 604.977 394.886 605.007 395.55C605.054 396.638 605.411 397.765 606.238 398.522C607.061 399.279 608.073 399.755 609.212 399.755C610.29 399.755 611.423 399.287 612.185 398.522C612.915 397.794 613.465 396.598 613.418 395.55C613.388 394.926 613.26 394.287 612.999 393.715C624.037 393.976 632.989 394.181 639.015 394.319C640.231 396.485 640.86 398.33 640.86 399.768C640.86 401.702 639.728 402.91 637.372 403.204C633.928 403.633 623.632 403.754 613.068 403.754M327.65 392.984C326.572 392.984 325.44 393.456 324.677 394.218C323.947 394.945 323.397 396.144 323.444 397.19C323.493 398.278 323.851 399.408 324.677 400.165C325.499 400.92 326.51 401.396 327.65 401.396C328.728 401.396 329.862 400.927 330.625 400.165C331.355 399.435 331.902 398.238 331.855 397.19C331.809 396.102 331.451 394.975 330.625 394.218C329.801 393.463 328.789 392.984 327.65 392.984ZM299.199 387.565C298.119 387.565 296.987 388.034 296.224 388.796C295.494 389.526 294.947 390.723 294.994 391.768C295.04 392.856 295.398 393.986 296.224 394.743C297.048 395.498 298.06 395.974 299.199 395.974C300.277 395.974 301.409 395.505 302.172 394.743C302.902 394.013 303.452 392.817 303.405 391.768C303.356 390.683 302.998 389.553 302.172 388.796C301.35 388.041 300.339 387.565 299.199 387.565ZM358.843 386.418C357.765 386.418 356.633 386.887 355.871 387.649C355.141 388.379 354.591 389.576 354.638 390.624C354.687 391.712 355.045 392.839 355.871 393.599C356.692 394.353 357.704 394.83 358.843 394.83C359.921 394.83 361.056 394.361 361.818 393.599C362.548 392.869 363.096 391.672 363.049 390.624C363.002 389.536 362.644 388.409 361.818 387.649C360.994 386.894 359.983 386.418 358.843 386.418ZM329.295 372.516C328.217 372.516 327.085 372.985 326.32 373.747C325.593 374.477 325.042 375.673 325.089 376.722C325.139 377.81 325.496 378.937 326.32 379.694C327.144 380.451 328.155 380.927 329.295 380.927C330.373 380.927 331.505 380.459 332.27 379.694C332.997 378.966 333.548 377.77 333.501 376.722C333.451 375.634 333.094 374.507 332.27 373.747C331.446 372.992 330.435 372.516 329.295 372.516ZM293.178 364.087C292.1 364.087 290.968 364.559 290.206 365.321C289.476 366.051 288.926 367.247 288.972 368.293C289.022 369.381 289.379 370.511 290.206 371.268C291.027 372.023 292.038 372.499 293.178 372.499C294.258 372.499 295.391 372.03 296.153 371.268C296.883 370.538 297.431 369.341 297.384 368.293C297.337 367.208 296.979 366.078 296.153 365.321C295.329 364.566 294.318 364.087 293.178 364.087Z" fill="#9FC8F2"/>
<path d="M308.227 345.41C307.088 345.41 306.076 344.934 305.255 344.179C304.429 343.42 304.071 342.292 304.022 341.204C303.975 340.159 304.525 338.96 305.255 338.232C306.017 337.47 307.149 336.999 308.227 336.999C308.698 336.999 309.147 337.08 309.569 337.231C310.376 338.735 311.298 340.371 312.344 342.1C312.162 342.882 311.727 343.651 311.202 344.179C310.44 344.941 309.305 345.41 308.227 345.41" fill="#C6DBF6"/>
<path d="M329.295 380.926C328.155 380.926 327.144 380.45 326.32 379.692C325.496 378.935 325.139 377.808 325.089 376.72C325.042 375.672 325.592 374.475 326.32 373.745C327.085 372.983 328.217 372.514 329.295 372.514C330.434 372.514 331.446 372.991 332.27 373.745C333.094 374.505 333.451 375.632 333.501 376.72C333.547 377.768 332.997 378.965 332.27 379.692C331.505 380.457 330.373 380.926 329.295 380.926Z" fill="#C6DBF6"/>
<path d="M293.178 372.496C292.038 372.496 291.027 372.02 290.206 371.265C289.379 370.508 289.022 369.378 288.972 368.29C288.925 367.245 289.475 366.048 290.206 365.318C290.968 364.556 292.1 364.085 293.178 364.085C294.318 364.085 295.329 364.563 296.153 365.318C296.979 366.075 297.337 367.205 297.384 368.29C297.43 369.339 296.883 370.535 296.153 371.265C295.391 372.027 294.258 372.496 293.178 372.496Z" fill="#C6DBF6"/>
<path d="M299.199 395.973C298.06 395.973 297.048 395.497 296.224 394.742C295.398 393.985 295.04 392.855 294.994 391.767C294.947 390.721 295.494 389.525 296.224 388.795C296.987 388.032 298.119 387.564 299.199 387.564C300.339 387.564 301.35 388.04 302.172 388.795C302.998 389.552 303.356 390.682 303.405 391.767C303.452 392.815 302.902 394.012 302.172 394.742C301.409 395.504 300.277 395.973 299.199 395.973Z" fill="#C6DBF6"/>
<path d="M358.843 394.828C357.704 394.828 356.692 394.352 355.871 393.597C355.045 392.838 354.687 391.71 354.638 390.622C354.591 389.574 355.141 388.378 355.871 387.648C356.633 386.885 357.765 386.417 358.843 386.417C359.983 386.417 360.994 386.893 361.818 387.648C362.644 388.407 363.002 389.535 363.049 390.622C363.096 391.671 362.548 392.867 361.818 393.597C361.056 394.359 359.921 394.828 358.843 394.828Z" fill="#C6DBF6"/>
<path d="M401.529 395.65C400.389 395.65 399.378 395.174 398.557 394.417C397.73 393.66 397.373 392.533 397.323 391.445C397.276 390.396 397.827 389.2 398.557 388.47C399.015 388.011 399.607 387.658 400.241 387.451C401.194 387.493 402.163 387.535 403.147 387.577C403.64 387.789 404.097 388.095 404.504 388.47C405.33 389.23 405.685 390.357 405.735 391.445C405.782 392.493 405.234 393.689 404.504 394.417C403.742 395.182 402.607 395.65 401.529 395.65" fill="#C6DBF6"/>
<path d="M466.227 403.545H458.329C458.171 403.084 458.089 402.595 458.07 402.114C458.023 401.066 458.57 399.87 459.301 399.139C460.063 398.377 461.197 397.909 462.275 397.909C463.415 397.909 464.426 398.385 465.248 399.139C466.074 399.899 466.432 401.026 466.481 402.114C466.501 402.58 466.405 403.074 466.227 403.545Z" fill="#C6DBF6"/>
<path d="M541.9 398.932C540.76 398.932 539.749 398.456 538.925 397.701C538.101 396.941 537.743 395.814 537.694 394.726C537.65 393.729 538.145 392.595 538.824 391.86C540.94 391.916 543.044 391.971 545.138 392.025C545.777 392.767 546.063 393.762 546.105 394.726C546.152 395.774 545.602 396.971 544.874 397.701C544.112 398.463 542.978 398.932 541.9 398.932Z" fill="#C6DBF6"/>
<path d="M577.198 399.756C576.058 399.756 575.047 399.28 574.223 398.523C573.399 397.765 573.041 396.638 572.992 395.55C572.95 394.588 573.406 393.503 574.045 392.768C576.228 392.822 578.379 392.874 580.5 392.928C581.095 393.661 581.361 394.62 581.403 395.55C581.45 396.599 580.9 397.795 580.172 398.523C579.408 399.287 578.276 399.756 577.198 399.756" fill="#C6DBF6"/>
<path d="M609.212 399.756C608.073 399.756 607.061 399.28 606.238 398.523C605.411 397.765 605.054 396.638 605.007 395.55C604.977 394.887 605.187 394.164 605.527 393.537C608.11 393.599 610.604 393.658 612.999 393.715C613.26 394.287 613.388 394.926 613.418 395.55C613.465 396.599 612.915 397.795 612.185 398.523C611.422 399.287 610.29 399.756 609.212 399.756" fill="#C6DBF6"/>
<path d="M327.65 401.395C326.51 401.395 325.499 400.918 324.677 400.164C323.851 399.406 323.493 398.277 323.444 397.189C323.397 396.143 323.947 394.944 324.677 394.217C325.439 393.454 326.572 392.983 327.65 392.983C328.789 392.983 329.801 393.462 330.624 394.217C331.451 394.974 331.808 396.101 331.855 397.189C331.902 398.237 331.355 399.434 330.624 400.164C329.862 400.926 328.728 401.395 327.65 401.395" fill="#C6DBF6"/>
<path d="M226.686 399.482C225.781 396.725 223.207 394.855 220.31 394.692C213.417 394.302 198.277 394.105 188.763 398.905C176.131 405.279 164.132 416.014 169.816 414.435C175.5 412.857 191.605 401.345 198.868 402.435C206.131 403.528 224.826 404.332 226.531 402.119C227.063 401.429 227.01 400.471 226.686 399.482" fill="#ECC18F"/>
<path d="M226.498 401.152C226.498 401.152 196.706 401.103 193.841 403.582C190.976 406.063 174.567 415.701 176.651 416.48C178.734 417.262 195.403 409.746 198.789 408.816C202.175 407.886 228.221 411.626 229.002 408.846C229.784 406.063 226.498 401.152 226.498 401.152" fill="#ECC18F"/>
<path d="M198.868 402.436C198.868 402.436 213.428 400.623 218.352 401.237C218.352 401.237 208.439 398.102 198.868 402.436Z" fill="#E0A870"/>
<path d="M222.744 394.182L279.634 368.679L275.576 403.548C275.576 403.548 232.673 411.308 224.366 410.928C216.059 410.546 222.744 394.182 222.744 394.182Z" fill="#9E5C45"/>
<path d="M215.219 403.768C215.219 403.768 261.146 400.243 287.759 383.154V408.846L213.912 414.594L215.219 403.768" fill="#8A4F3D"/>
<path d="M248.869 330.932C248.869 330.932 222.744 323.947 207.092 310.945C191.373 297.884 245.554 274.391 263.011 276.826C280.467 279.263 288.847 331.233 269.027 363.707L258.159 315.38C258.159 315.38 259.493 326.986 248.869 330.932" fill="#BCDEF9"/>
<path d="M268.485 361.289L258.159 315.384C258.159 315.384 258.213 315.856 258.213 316.637C258.213 318.769 257.811 323.216 254.822 326.82C251.072 324.62 246.825 321.921 242.474 319.042C249.267 314.121 257.308 307.276 258.159 301.948C258.285 301.162 258.485 300.794 258.741 300.794C261.548 300.794 271.26 344.385 268.485 361.289" fill="#9FC8F2"/>
<path d="M232.863 325.424C227.787 323.369 222.097 320.752 216.72 317.6C213.304 315.599 210.016 313.379 207.093 310.952C206.212 310.219 205.551 309.455 205.09 308.665C204.532 307.706 204.267 306.704 204.266 305.681C204.262 302.681 206.495 299.45 210.128 296.27C210.129 296.27 210.13 296.27 210.13 296.27C210.13 296.27 226.948 308.781 242.474 319.045C237.305 322.792 232.861 325.424 232.861 325.424H232.863Z" fill="#E0F0FC"/>
<path d="M248.87 330.938C248.87 330.938 241.827 329.055 232.863 325.422H232.861C232.861 325.422 237.305 322.79 242.474 319.043C246.825 321.922 251.072 324.62 254.822 326.821C253.616 328.276 251.99 329.591 249.797 330.563C249.514 330.686 249.222 330.807 248.922 330.92C248.904 330.925 248.887 330.933 248.87 330.938" fill="#D3E6F9"/>
<path d="M275.058 367.691C275.058 371.238 272.184 374.111 268.64 374.111C265.095 374.111 262.221 371.238 262.221 367.691C262.221 364.146 265.095 361.272 268.64 361.272C272.184 361.272 275.058 364.146 275.058 367.691Z" fill="white"/>
<path d="M327.613 150.9V135.436L314.47 150.9H327.613ZM327.613 161.494H302.741V150.264L327.613 120.698H339.515V150.9H345.681V161.494H339.515V170.678H327.613V161.494Z" fill="#77AAE9"/>
<path d="M363.48 145.939C363.48 152.197 364.033 156.469 365.141 158.76C366.246 161.052 367.849 162.197 369.951 162.197C371.334 162.197 372.536 161.711 373.552 160.739C374.571 159.767 375.318 158.23 375.799 156.129C376.28 154.029 376.519 150.754 376.519 146.309C376.519 139.782 375.967 135.396 374.862 133.152C373.754 130.904 372.094 129.782 369.881 129.782C367.624 129.782 365.994 130.927 364.988 133.218C363.984 135.51 363.48 139.75 363.48 145.939V145.939ZM349.938 145.904C349.938 136.565 351.618 130.029 354.983 126.297C358.345 122.565 363.468 120.697 370.353 120.697C373.658 120.697 376.374 121.107 378.498 121.921C380.619 122.737 382.353 123.798 383.692 125.105C385.034 126.413 386.09 127.787 386.86 129.23C387.632 130.67 388.251 132.352 388.722 134.274C389.637 137.939 390.096 141.76 390.096 145.739C390.096 154.653 388.586 161.18 385.569 165.314C382.553 169.449 377.358 171.516 369.983 171.516C365.848 171.516 362.509 170.855 359.961 169.537C357.412 168.218 355.323 166.286 353.693 163.738C352.506 161.928 351.586 159.454 350.928 156.314C350.267 153.173 349.938 149.705 349.938 145.904" fill="#77AAE9"/>
<path d="M419.19 150.9V135.436L406.048 150.9H419.19ZM419.19 161.494H394.319V150.264L419.19 120.698H431.092V150.9H437.259V161.494H431.092V170.678H419.19V161.494Z" fill="#77AAE9"/>
<path d="M261.698 197.639C262.374 197.817 263.228 197.889 264.261 197.889C267.998 197.889 270.275 196.073 270.275 192.763C270.275 189.596 268.033 188.066 264.617 188.066C263.265 188.066 262.231 188.172 261.698 188.315V197.639ZM258.603 186.073C260.098 185.824 262.054 185.609 264.545 185.609C267.606 185.609 269.848 186.322 271.272 187.603C272.589 188.742 273.373 190.486 273.373 192.622C273.373 194.793 272.732 196.5 271.521 197.745C269.885 199.489 267.214 200.38 264.19 200.38C263.265 200.38 262.411 200.345 261.698 200.165V209.775H258.603V186.073Z" fill="#77AAE9"/>
<path d="M285.581 200.985C282.165 200.913 278.285 201.52 278.285 204.865C278.285 206.892 279.636 207.854 281.24 207.854C283.482 207.854 284.905 206.431 285.403 204.971C285.509 204.65 285.581 204.295 285.581 203.974V200.985ZM286.042 209.776L285.793 207.605H285.687C284.727 208.957 282.875 210.168 280.421 210.168C276.933 210.168 275.152 207.711 275.152 205.22C275.152 201.056 278.854 198.779 285.509 198.814V198.459C285.509 197.035 285.117 194.473 281.595 194.473C279.994 194.473 278.319 194.971 277.11 195.753L276.398 193.691C277.821 192.763 279.885 192.159 282.056 192.159C287.325 192.159 288.605 195.753 288.605 199.206V205.647C288.605 207.141 288.677 208.602 288.891 209.776H286.042" fill="#77AAE9"/>
<path d="M305.262 199.349C305.262 198.814 305.225 198.352 305.085 197.926C304.515 196.11 302.983 194.615 300.707 194.615C297.717 194.615 295.581 197.141 295.581 201.127C295.581 204.509 297.29 207.321 300.67 207.321C302.594 207.321 304.337 206.11 305.013 204.117C305.191 203.584 305.262 202.977 305.262 202.444V199.349ZM308.501 192.551C308.43 193.796 308.358 195.185 308.358 197.284V207.284C308.358 211.236 307.576 213.655 305.901 215.15C304.229 216.717 301.809 217.215 299.638 217.215C297.574 217.215 295.297 216.717 293.908 215.789L294.693 213.406C295.83 214.117 297.611 214.758 299.745 214.758C302.949 214.758 305.297 213.086 305.297 208.744V206.823H305.225C304.266 208.424 302.413 209.704 299.745 209.704C295.475 209.704 292.414 206.073 292.414 201.305C292.414 195.469 296.222 192.158 300.171 192.158C303.161 192.158 304.799 193.725 305.546 195.148H305.618L305.761 192.551H308.501" fill="#77AAE9"/>
<path d="M324.48 199.49C324.515 197.497 323.661 194.401 320.139 194.401C316.972 194.401 315.583 197.319 315.334 199.49H324.48ZM315.299 201.732C315.368 205.967 318.074 207.711 321.207 207.711C323.449 207.711 324.801 207.321 325.975 206.823L326.508 209.065C325.405 209.561 323.518 210.131 320.78 210.131C315.477 210.131 312.31 206.643 312.31 201.448C312.31 196.251 315.368 192.159 320.388 192.159C326.009 192.159 327.504 197.107 327.504 200.274C327.504 200.913 327.435 201.411 327.398 201.732H315.299Z" fill="#77AAE9"/>
<path d="M338.93 197.213C338.93 195.434 338.895 193.974 338.787 192.551H341.564L341.742 195.397H341.813C342.667 193.759 344.66 192.158 347.506 192.158C349.892 192.158 353.592 193.582 353.592 199.489V209.775H350.461V199.847C350.461 197.07 349.428 194.756 346.475 194.756C344.411 194.756 342.81 196.216 342.274 197.96C342.131 198.352 342.062 198.885 342.062 199.418V209.775H338.93V197.213" fill="#77AAE9"/>
<path d="M360.604 201.199C360.604 204.971 362.775 207.82 365.836 207.82C368.826 207.82 371.068 205.008 371.068 201.128C371.068 198.21 369.608 194.507 365.908 194.507C362.205 194.507 360.604 197.926 360.604 201.199ZM374.27 201.022C374.27 207.39 369.857 210.168 365.693 210.168C361.031 210.168 357.437 206.752 357.437 201.305C357.437 195.541 361.209 192.159 365.979 192.159C370.925 192.159 374.27 195.753 374.27 201.022" fill="#77AAE9"/>
<path d="M381.995 187.603V192.551H386.477V194.934H381.995V204.223C381.995 206.359 382.6 207.57 384.344 207.57C385.163 207.57 385.767 207.462 386.159 207.356L386.3 209.704C385.695 209.953 384.733 210.131 383.525 210.131C382.065 210.131 380.89 209.67 380.143 208.816C379.253 207.889 378.934 206.359 378.934 204.332V194.934H376.265V192.551H378.934V188.422L381.995 187.603" fill="#77AAE9"/>
<path d="M397.866 209.775V194.933H395.446V192.551H397.866V191.732C397.866 189.312 398.401 187.104 399.859 185.718C401.036 184.578 402.599 184.115 404.06 184.115C405.162 184.115 406.124 184.364 406.729 184.613L406.302 187.033C405.838 186.821 405.199 186.643 404.309 186.643C401.64 186.643 400.964 188.991 400.964 191.626V192.551H405.128V194.933H400.964V209.775H397.866" fill="#77AAE9"/>
<path d="M409.398 201.199C409.398 204.971 411.568 207.82 414.629 207.82C417.619 207.82 419.861 205.008 419.861 201.128C419.861 198.21 418.403 194.507 414.701 194.507C411.001 194.507 409.398 197.926 409.398 201.199V201.199ZM423.065 201.022C423.065 207.39 418.653 210.168 414.489 210.168C409.827 210.168 406.23 206.752 406.23 201.305C406.23 195.541 410.004 192.159 414.773 192.159C419.721 192.159 423.065 195.753 423.065 201.022Z" fill="#77AAE9"/>
<path d="M441.43 205.079C441.43 206.858 441.464 208.424 441.573 209.776H438.795L438.618 206.964H438.546C437.727 208.352 435.914 210.168 432.853 210.168C430.147 210.168 426.908 208.673 426.908 202.622V192.551H430.041V202.09C430.041 205.363 431.038 207.571 433.884 207.571C435.983 207.571 437.444 206.11 438.013 204.722C438.191 204.26 438.297 203.69 438.297 203.121V192.551H441.43V205.079" fill="#77AAE9"/>
<path d="M446.627 197.213C446.627 195.434 446.59 193.974 446.484 192.551H449.259L449.437 195.397H449.508C450.364 193.759 452.357 192.158 455.204 192.158C457.586 192.158 461.289 193.582 461.289 199.489V209.775H458.156V199.847C458.156 197.07 457.125 194.756 454.17 194.756C452.108 194.756 450.505 196.216 449.972 197.96C449.829 198.352 449.757 198.885 449.757 199.418V209.775H446.627V197.213" fill="#77AAE9"/>
<path d="M478.124 199.561C478.124 199.172 478.087 198.636 477.981 198.244C477.517 196.251 475.81 194.616 473.462 194.616C470.223 194.616 468.302 197.462 468.302 201.271C468.302 204.759 470.008 207.64 473.39 207.64C475.489 207.64 477.411 206.253 477.981 203.903C478.087 203.476 478.124 203.049 478.124 202.551V199.561ZM481.256 184.507V205.328C481.256 206.858 481.291 208.602 481.397 209.776H478.585L478.444 206.786H478.373C477.411 208.708 475.312 210.168 472.5 210.168C468.336 210.168 465.132 206.643 465.132 201.411C465.097 195.684 468.657 192.159 472.855 192.159C475.489 192.159 477.27 193.404 478.052 194.793H478.124V184.507H481.256" fill="#77AAE9"/>
<path d="M219.602 242.14C218.856 242.14 218.16 242.005 217.516 241.734C216.882 241.454 216.331 241.076 215.864 240.6C215.398 240.124 215.029 239.569 214.758 238.934C214.497 238.299 214.366 237.618 214.366 236.89C214.366 236.162 214.502 235.481 214.772 234.846C215.052 234.211 215.43 233.656 215.906 233.18C216.382 232.704 216.938 232.331 217.572 232.06C218.207 231.78 218.884 231.64 219.602 231.64C220.33 231.64 221.012 231.78 221.646 232.06C222.281 232.331 222.836 232.704 223.312 233.18C223.788 233.656 224.162 234.211 224.432 234.846C224.703 235.481 224.838 236.162 224.838 236.89C224.838 237.609 224.698 238.285 224.418 238.92C224.148 239.555 223.774 240.11 223.298 240.586C222.822 241.062 222.267 241.44 221.632 241.72C220.998 242 220.321 242.14 219.602 242.14ZM219.602 241.006C220.172 241.006 220.704 240.899 221.198 240.684C221.702 240.469 222.136 240.175 222.5 239.802C222.864 239.429 223.149 238.995 223.354 238.5C223.569 237.996 223.676 237.459 223.676 236.89C223.676 236.321 223.569 235.789 223.354 235.294C223.149 234.79 222.864 234.351 222.5 233.978C222.136 233.605 221.702 233.311 221.198 233.096C220.704 232.872 220.172 232.76 219.602 232.76C219.033 232.76 218.501 232.872 218.006 233.096C217.512 233.311 217.078 233.605 216.704 233.978C216.34 234.351 216.051 234.79 215.836 235.294C215.631 235.789 215.528 236.321 215.528 236.89C215.528 237.459 215.631 237.996 215.836 238.5C216.051 238.995 216.34 239.429 216.704 239.802C217.068 240.175 217.498 240.469 217.992 240.684C218.487 240.899 219.024 241.006 219.602 241.006ZM226.715 230.968H227.849V235.658C228.12 235.238 228.479 234.907 228.927 234.664C229.375 234.412 229.889 234.286 230.467 234.286C230.962 234.286 231.405 234.365 231.797 234.524C232.199 234.673 232.539 234.897 232.819 235.196C233.099 235.485 233.314 235.84 233.463 236.26C233.613 236.68 233.687 237.156 233.687 237.688V242H232.511V237.744C232.511 237.007 232.315 236.419 231.923 235.98C231.541 235.541 230.976 235.322 230.229 235.322C229.893 235.322 229.581 235.383 229.291 235.504C229.011 235.625 228.764 235.798 228.549 236.022C228.335 236.237 228.167 236.498 228.045 236.806C227.924 237.105 227.863 237.436 227.863 237.8V242H226.715V230.968ZM242.671 242.154C242.139 242.154 241.635 242.061 241.159 241.874C240.693 241.678 240.287 241.407 239.941 241.062C239.596 240.707 239.321 240.292 239.115 239.816C238.919 239.331 238.821 238.799 238.821 238.22C238.821 237.641 238.919 237.114 239.115 236.638C239.321 236.153 239.596 235.737 239.941 235.392C240.296 235.037 240.707 234.767 241.173 234.58C241.64 234.384 242.139 234.286 242.671 234.286C242.942 234.286 243.213 234.319 243.483 234.384C243.763 234.449 244.025 234.547 244.267 234.678C244.519 234.799 244.748 234.953 244.953 235.14C245.168 235.317 245.35 235.523 245.499 235.756V230.954H246.633V242H245.499V240.656C245.35 240.889 245.168 241.099 244.953 241.286C244.748 241.473 244.519 241.631 244.267 241.762C244.025 241.883 243.763 241.977 243.483 242.042C243.213 242.117 242.942 242.154 242.671 242.154ZM242.769 241.076C243.171 241.076 243.544 241.001 243.889 240.852C244.235 240.703 244.533 240.502 244.785 240.25C245.037 239.989 245.233 239.685 245.373 239.34C245.513 238.985 245.583 238.607 245.583 238.206C245.583 237.814 245.513 237.445 245.373 237.1C245.233 236.745 245.037 236.442 244.785 236.19C244.533 235.929 244.235 235.723 243.889 235.574C243.544 235.415 243.171 235.336 242.769 235.336C242.377 235.336 242.009 235.411 241.663 235.56C241.327 235.709 241.033 235.915 240.781 236.176C240.529 236.428 240.333 236.731 240.193 237.086C240.053 237.431 239.983 237.805 239.983 238.206C239.983 238.617 240.053 238.999 240.193 239.354C240.333 239.699 240.529 240.003 240.781 240.264C241.033 240.516 241.327 240.717 241.663 240.866C242.009 241.006 242.377 241.076 242.769 241.076ZM252.354 242.154C251.748 242.154 251.197 242.056 250.702 241.86C250.217 241.655 249.797 241.379 249.442 241.034C249.097 240.679 248.831 240.264 248.644 239.788C248.458 239.312 248.364 238.799 248.364 238.248C248.364 237.688 248.462 237.17 248.658 236.694C248.864 236.209 249.139 235.789 249.484 235.434C249.839 235.079 250.254 234.799 250.73 234.594C251.216 234.389 251.743 234.286 252.312 234.286C252.863 234.286 253.372 234.384 253.838 234.58C254.314 234.767 254.72 235.033 255.056 235.378C255.402 235.714 255.672 236.12 255.868 236.596C256.064 237.063 256.162 237.576 256.162 238.136V238.654H249.484C249.522 239.018 249.62 239.349 249.778 239.648C249.937 239.947 250.138 240.208 250.38 240.432C250.632 240.647 250.922 240.815 251.248 240.936C251.584 241.057 251.953 241.118 252.354 241.118C252.961 241.118 253.47 240.992 253.88 240.74C254.291 240.488 254.627 240.129 254.888 239.662L255.868 240.236C255.476 240.843 255 241.314 254.44 241.65C253.88 241.986 253.185 242.154 252.354 242.154ZM252.312 235.308C251.948 235.308 251.608 235.369 251.29 235.49C250.982 235.602 250.707 235.765 250.464 235.98C250.222 236.185 250.016 236.433 249.848 236.722C249.69 237.002 249.578 237.31 249.512 237.646H254.986C254.893 236.927 254.608 236.358 254.132 235.938C253.656 235.518 253.05 235.308 252.312 235.308ZM260.142 242.154C259.694 242.154 259.302 242.098 258.966 241.986C258.63 241.865 258.35 241.701 258.126 241.496C257.902 241.291 257.734 241.057 257.622 240.796C257.51 240.525 257.454 240.236 257.454 239.928C257.454 239.144 257.757 238.542 258.364 238.122C258.98 237.693 259.82 237.478 260.884 237.478H263.278V237.184C263.278 236.605 263.091 236.143 262.718 235.798C262.354 235.443 261.803 235.266 261.066 235.266C260.497 235.266 260.016 235.378 259.624 235.602C259.241 235.826 258.919 236.139 258.658 236.54L257.664 235.91C258.047 235.415 258.513 235.023 259.064 234.734C259.615 234.435 260.287 234.286 261.08 234.286C261.621 234.286 262.097 234.356 262.508 234.496C262.919 234.636 263.264 234.837 263.544 235.098C263.824 235.35 264.034 235.653 264.174 236.008C264.323 236.363 264.398 236.755 264.398 237.184V242H263.278V240.67C262.942 241.137 262.499 241.501 261.948 241.762C261.397 242.023 260.795 242.154 260.142 242.154ZM260.352 241.146C260.632 241.146 260.912 241.109 261.192 241.034C261.481 240.959 261.752 240.852 262.004 240.712C262.265 240.572 262.503 240.395 262.718 240.18C262.942 239.965 263.129 239.718 263.278 239.438V238.402H260.94C260.147 238.402 259.563 238.523 259.19 238.766C258.817 239.009 258.63 239.368 258.63 239.844C258.63 240.217 258.765 240.53 259.036 240.782C259.316 241.025 259.755 241.146 260.352 241.146ZM266.391 234.44H267.497V235.868C267.655 235.364 267.917 234.981 268.281 234.72C268.654 234.459 269.111 234.328 269.653 234.328C270.194 234.328 270.614 234.421 270.913 234.608L270.437 235.7C270.334 235.625 270.203 235.569 270.045 235.532C269.895 235.485 269.718 235.462 269.513 235.462C268.878 235.462 268.388 235.653 268.043 236.036C267.697 236.409 267.525 237.016 267.525 237.856V242H266.391V234.44ZM271.581 242.098C271.366 242.098 271.189 242.023 271.049 241.874C270.918 241.725 270.853 241.538 270.853 241.314C270.853 241.043 270.942 240.824 271.119 240.656C271.296 240.479 271.525 240.39 271.805 240.39C272.169 240.39 272.444 240.511 272.631 240.754C272.827 240.997 272.925 241.286 272.925 241.622C272.925 242.089 272.785 242.518 272.505 242.91C272.225 243.302 271.861 243.633 271.413 243.904L271.021 243.386C271.413 243.162 271.707 242.905 271.903 242.616C272.099 242.336 272.197 242.042 272.197 241.734C272.197 241.687 272.188 241.627 272.169 241.552C272.15 241.739 272.09 241.879 271.987 241.972C271.884 242.056 271.749 242.098 271.581 242.098ZM277.466 234.44H278.67L280.574 240.432L282.884 234.44H283.948L286.202 240.39L288.176 234.44H289.366L286.748 242H285.712L283.388 236.008L281.064 242H279.944L277.466 234.44ZM294.163 242.154C293.556 242.154 293.006 242.056 292.511 241.86C292.026 241.655 291.606 241.379 291.251 241.034C290.906 240.679 290.64 240.264 290.453 239.788C290.266 239.312 290.173 238.799 290.173 238.248C290.173 237.688 290.271 237.17 290.467 236.694C290.672 236.209 290.948 235.789 291.293 235.434C291.648 235.079 292.063 234.799 292.539 234.594C293.024 234.389 293.552 234.286 294.121 234.286C294.672 234.286 295.18 234.384 295.647 234.58C296.123 234.767 296.529 235.033 296.865 235.378C297.21 235.714 297.481 236.12 297.677 236.596C297.873 237.063 297.971 237.576 297.971 238.136V238.654H291.293C291.33 239.018 291.428 239.349 291.587 239.648C291.746 239.947 291.946 240.208 292.189 240.432C292.441 240.647 292.73 240.815 293.057 240.936C293.393 241.057 293.762 241.118 294.163 241.118C294.77 241.118 295.278 240.992 295.689 240.74C296.1 240.488 296.436 240.129 296.697 239.662L297.677 240.236C297.285 240.843 296.809 241.314 296.249 241.65C295.689 241.986 294.994 242.154 294.163 242.154ZM294.121 235.308C293.757 235.308 293.416 235.369 293.099 235.49C292.791 235.602 292.516 235.765 292.273 235.98C292.03 236.185 291.825 236.433 291.657 236.722C291.498 237.002 291.386 237.31 291.321 237.646H296.795C296.702 236.927 296.417 236.358 295.941 235.938C295.465 235.518 294.858 235.308 294.121 235.308ZM306.809 242.154C306.249 242.154 305.726 242.051 305.241 241.846C304.755 241.641 304.335 241.361 303.981 241.006C303.626 240.651 303.346 240.236 303.141 239.76C302.945 239.284 302.847 238.771 302.847 238.22C302.847 237.66 302.949 237.142 303.155 236.666C303.36 236.181 303.64 235.765 303.995 235.42C304.349 235.065 304.765 234.79 305.241 234.594C305.726 234.389 306.244 234.286 306.795 234.286C307.205 234.286 307.593 234.342 307.957 234.454C308.33 234.566 308.671 234.725 308.979 234.93C309.287 235.126 309.557 235.369 309.791 235.658C310.033 235.938 310.225 236.246 310.365 236.582L309.315 237.044C309.091 236.521 308.759 236.111 308.321 235.812C307.882 235.513 307.369 235.364 306.781 235.364C306.389 235.364 306.02 235.439 305.675 235.588C305.339 235.737 305.045 235.943 304.793 236.204C304.541 236.456 304.345 236.759 304.205 237.114C304.065 237.459 303.995 237.828 303.995 238.22C303.995 238.612 304.065 238.981 304.205 239.326C304.354 239.671 304.555 239.975 304.807 240.236C305.059 240.497 305.357 240.703 305.703 240.852C306.048 241.001 306.421 241.076 306.823 241.076C307.439 241.076 307.957 240.913 308.377 240.586C308.806 240.25 309.128 239.83 309.343 239.326L310.407 239.774C310.108 240.474 309.651 241.048 309.035 241.496C308.428 241.935 307.686 242.154 306.809 242.154ZM315.558 242.154C314.998 242.154 314.48 242.056 314.004 241.86C313.528 241.655 313.112 241.375 312.758 241.02C312.412 240.665 312.137 240.25 311.932 239.774C311.736 239.298 311.638 238.78 311.638 238.22C311.638 237.669 311.736 237.156 311.932 236.68C312.137 236.195 312.417 235.775 312.772 235.42C313.126 235.065 313.542 234.79 314.018 234.594C314.494 234.389 315.007 234.286 315.558 234.286C316.108 234.286 316.622 234.389 317.098 234.594C317.583 234.79 318.003 235.065 318.358 235.42C318.712 235.775 318.988 236.195 319.184 236.68C319.389 237.156 319.492 237.669 319.492 238.22C319.492 238.771 319.389 239.284 319.184 239.76C318.988 240.236 318.712 240.651 318.358 241.006C318.003 241.361 317.588 241.641 317.112 241.846C316.636 242.051 316.118 242.154 315.558 242.154ZM315.558 241.062C315.95 241.062 316.314 240.992 316.65 240.852C316.995 240.703 317.289 240.502 317.532 240.25C317.784 239.989 317.98 239.685 318.12 239.34C318.26 238.995 318.33 238.621 318.33 238.22C318.33 237.819 318.26 237.445 318.12 237.1C317.98 236.745 317.784 236.442 317.532 236.19C317.28 235.929 316.986 235.728 316.65 235.588C316.314 235.439 315.95 235.364 315.558 235.364C315.166 235.364 314.802 235.439 314.466 235.588C314.13 235.728 313.836 235.929 313.584 236.19C313.341 236.442 313.15 236.745 313.01 237.1C312.87 237.445 312.8 237.819 312.8 238.22C312.8 238.631 312.87 239.009 313.01 239.354C313.15 239.699 313.341 239.998 313.584 240.25C313.836 240.502 314.13 240.703 314.466 240.852C314.802 240.992 315.166 241.062 315.558 241.062ZM324.324 242.154C323.288 242.154 322.499 241.855 321.958 241.258C321.417 240.651 321.146 239.811 321.146 238.738V234.44H322.308V238.682C322.308 239.419 322.495 240.007 322.868 240.446C323.241 240.885 323.792 241.104 324.52 241.104C324.856 241.104 325.164 241.043 325.444 240.922C325.724 240.801 325.967 240.633 326.172 240.418C326.387 240.194 326.55 239.933 326.662 239.634C326.783 239.326 326.844 238.99 326.844 238.626V234.44H327.992V242H326.872V240.754C326.62 241.174 326.275 241.515 325.836 241.776C325.407 242.028 324.903 242.154 324.324 242.154ZM330.02 230.968H331.168V242H330.02V230.968ZM336.748 242.154C336.216 242.154 335.712 242.061 335.236 241.874C334.769 241.678 334.363 241.407 334.018 241.062C333.672 240.707 333.397 240.292 333.192 239.816C332.996 239.331 332.898 238.799 332.898 238.22C332.898 237.641 332.996 237.114 333.192 236.638C333.397 236.153 333.672 235.737 334.018 235.392C334.372 235.037 334.783 234.767 335.25 234.58C335.716 234.384 336.216 234.286 336.748 234.286C337.018 234.286 337.289 234.319 337.56 234.384C337.84 234.449 338.101 234.547 338.344 234.678C338.596 234.799 338.824 234.953 339.03 235.14C339.244 235.317 339.426 235.523 339.576 235.756V230.954H340.71V242H339.576V240.656C339.426 240.889 339.244 241.099 339.03 241.286C338.824 241.473 338.596 241.631 338.344 241.762C338.101 241.883 337.84 241.977 337.56 242.042C337.289 242.117 337.018 242.154 336.748 242.154ZM336.846 241.076C337.247 241.076 337.62 241.001 337.966 240.852C338.311 240.703 338.61 240.502 338.862 240.25C339.114 239.989 339.31 239.685 339.45 239.34C339.59 238.985 339.66 238.607 339.66 238.206C339.66 237.814 339.59 237.445 339.45 237.1C339.31 236.745 339.114 236.442 338.862 236.19C338.61 235.929 338.311 235.723 337.966 235.574C337.62 235.415 337.247 235.336 336.846 235.336C336.454 235.336 336.085 235.411 335.74 235.56C335.404 235.709 335.11 235.915 334.858 236.176C334.606 236.428 334.41 236.731 334.27 237.086C334.13 237.431 334.06 237.805 334.06 238.206C334.06 238.617 334.13 238.999 334.27 239.354C334.41 239.699 334.606 240.003 334.858 240.264C335.11 240.516 335.404 240.717 335.74 240.866C336.085 241.006 336.454 241.076 336.846 241.076ZM342.735 234.44H343.855V235.7C344.116 235.28 344.471 234.939 344.919 234.678C345.376 234.417 345.899 234.286 346.487 234.286C346.981 234.286 347.425 234.365 347.817 234.524C348.218 234.673 348.559 234.897 348.839 235.196C349.119 235.485 349.333 235.84 349.483 236.26C349.632 236.68 349.707 237.156 349.707 237.688V242H348.545V237.744C348.545 237.007 348.349 236.419 347.957 235.98C347.565 235.541 347 235.322 346.263 235.322C345.927 235.322 345.614 235.383 345.325 235.504C345.035 235.625 344.783 235.798 344.569 236.022C344.354 236.237 344.186 236.498 344.065 236.806C343.943 237.105 343.883 237.436 343.883 237.8V242H342.735V234.44ZM351.196 234.678C351.588 234.454 351.882 234.202 352.078 233.922C352.274 233.633 352.372 233.339 352.372 233.04C352.372 232.993 352.362 232.933 352.344 232.858C352.325 233.045 352.264 233.18 352.162 233.264C352.059 233.348 351.924 233.39 351.756 233.39C351.541 233.39 351.364 233.32 351.224 233.18C351.093 233.031 351.028 232.844 351.028 232.62C351.028 232.349 351.116 232.125 351.294 231.948C351.471 231.771 351.7 231.682 351.98 231.682C352.344 231.682 352.619 231.808 352.806 232.06C353.002 232.303 353.1 232.592 353.1 232.928C353.1 233.385 352.96 233.81 352.68 234.202C352.4 234.594 352.036 234.925 351.588 235.196L351.196 234.678ZM354.121 234.44H355.591V232.774L356.725 232.046V234.44H358.937V235.462H356.725V239.69C356.725 240.175 356.823 240.521 357.019 240.726C357.224 240.931 357.49 241.034 357.817 241.034C358.134 241.034 358.423 240.913 358.685 240.67L359.287 241.58C359.072 241.748 358.839 241.879 358.587 241.972C358.335 242.065 358.05 242.112 357.733 242.112C357.033 242.112 356.501 241.925 356.137 241.552C355.773 241.169 355.591 240.558 355.591 239.718V235.462H354.121V234.44ZM363.35 234.44H364.75V233.852C364.75 233.292 364.792 232.825 364.876 232.452C364.969 232.079 365.123 231.785 365.338 231.57C365.553 231.346 365.842 231.192 366.206 231.108C366.579 231.015 367.041 230.968 367.592 230.968H367.942V232.046H367.676C367.293 232.046 366.981 232.069 366.738 232.116C366.505 232.153 366.323 232.237 366.192 232.368C366.071 232.499 365.987 232.685 365.94 232.928C365.903 233.161 365.884 233.474 365.884 233.866V234.44H367.942V235.462H365.884V242H364.75V235.462H363.35V234.44ZM369.477 234.44H370.639V242H369.477V234.44ZM369.155 232.116C369.155 231.855 369.239 231.64 369.407 231.472C369.584 231.295 369.799 231.206 370.051 231.206C370.322 231.206 370.541 231.295 370.709 231.472C370.877 231.64 370.961 231.855 370.961 232.116C370.961 232.377 370.877 232.597 370.709 232.774C370.541 232.942 370.322 233.026 370.051 233.026C369.79 233.026 369.575 232.942 369.407 232.774C369.239 232.597 369.155 232.377 369.155 232.116ZM372.676 234.44H373.796V235.7C374.057 235.28 374.412 234.939 374.86 234.678C375.317 234.417 375.84 234.286 376.428 234.286C376.923 234.286 377.366 234.365 377.758 234.524C378.159 234.673 378.5 234.897 378.78 235.196C379.06 235.485 379.275 235.84 379.424 236.26C379.573 236.68 379.648 237.156 379.648 237.688V242H378.486V237.744C378.486 237.007 378.29 236.419 377.898 235.98C377.506 235.541 376.941 235.322 376.204 235.322C375.868 235.322 375.555 235.383 375.266 235.504C374.977 235.625 374.725 235.798 374.51 236.022C374.295 236.237 374.127 236.498 374.006 236.806C373.885 237.105 373.824 237.436 373.824 237.8V242H372.676V234.44ZM385.146 242.154C384.614 242.154 384.11 242.061 383.634 241.874C383.167 241.678 382.761 241.407 382.416 241.062C382.071 240.707 381.795 240.292 381.59 239.816C381.394 239.331 381.296 238.799 381.296 238.22C381.296 237.641 381.394 237.114 381.59 236.638C381.795 236.153 382.071 235.737 382.416 235.392C382.771 235.037 383.181 234.767 383.648 234.58C384.115 234.384 384.614 234.286 385.146 234.286C385.417 234.286 385.687 234.319 385.958 234.384C386.238 234.449 386.499 234.547 386.742 234.678C386.994 234.799 387.223 234.953 387.428 235.14C387.643 235.317 387.825 235.523 387.974 235.756V230.954H389.108V242H387.974V240.656C387.825 240.889 387.643 241.099 387.428 241.286C387.223 241.473 386.994 241.631 386.742 241.762C386.499 241.883 386.238 241.977 385.958 242.042C385.687 242.117 385.417 242.154 385.146 242.154ZM385.244 241.076C385.645 241.076 386.019 241.001 386.364 240.852C386.709 240.703 387.008 240.502 387.26 240.25C387.512 239.989 387.708 239.685 387.848 239.34C387.988 238.985 388.058 238.607 388.058 238.206C388.058 237.814 387.988 237.445 387.848 237.1C387.708 236.745 387.512 236.442 387.26 236.19C387.008 235.929 386.709 235.723 386.364 235.574C386.019 235.415 385.645 235.336 385.244 235.336C384.852 235.336 384.483 235.411 384.138 235.56C383.802 235.709 383.508 235.915 383.256 236.176C383.004 236.428 382.808 236.731 382.668 237.086C382.528 237.431 382.458 237.805 382.458 238.206C382.458 238.617 382.528 238.999 382.668 239.354C382.808 239.699 383.004 240.003 383.256 240.264C383.508 240.516 383.802 240.717 384.138 240.866C384.483 241.006 384.852 241.076 385.244 241.076ZM393.892 234.44H395.362V232.774L396.496 232.046V234.44H398.708V235.462H396.496V239.69C396.496 240.175 396.594 240.521 396.79 240.726C396.996 240.931 397.262 241.034 397.588 241.034C397.906 241.034 398.195 240.913 398.456 240.67L399.058 241.58C398.844 241.748 398.61 241.879 398.358 241.972C398.106 242.065 397.822 242.112 397.504 242.112C396.804 242.112 396.272 241.925 395.908 241.552C395.544 241.169 395.362 240.558 395.362 239.718V235.462H393.892V234.44ZM400.348 230.968H401.482V235.658C401.753 235.238 402.112 234.907 402.56 234.664C403.008 234.412 403.522 234.286 404.1 234.286C404.595 234.286 405.038 234.365 405.43 234.524C405.832 234.673 406.172 234.897 406.452 235.196C406.732 235.485 406.947 235.84 407.096 236.26C407.246 236.68 407.32 237.156 407.32 237.688V242H406.144V237.744C406.144 237.007 405.948 236.419 405.556 235.98C405.174 235.541 404.609 235.322 403.862 235.322C403.526 235.322 403.214 235.383 402.924 235.504C402.644 235.625 402.397 235.798 402.182 236.022C401.968 236.237 401.8 236.498 401.678 236.806C401.557 237.105 401.496 237.436 401.496 237.8V242H400.348V230.968ZM412.958 242.154C412.351 242.154 411.801 242.056 411.306 241.86C410.821 241.655 410.401 241.379 410.046 241.034C409.701 240.679 409.435 240.264 409.248 239.788C409.061 239.312 408.968 238.799 408.968 238.248C408.968 237.688 409.066 237.17 409.262 236.694C409.467 236.209 409.743 235.789 410.088 235.434C410.443 235.079 410.858 234.799 411.334 234.594C411.819 234.389 412.347 234.286 412.916 234.286C413.467 234.286 413.975 234.384 414.442 234.58C414.918 234.767 415.324 235.033 415.66 235.378C416.005 235.714 416.276 236.12 416.472 236.596C416.668 237.063 416.766 237.576 416.766 238.136V238.654H410.088C410.125 239.018 410.223 239.349 410.382 239.648C410.541 239.947 410.741 240.208 410.984 240.432C411.236 240.647 411.525 240.815 411.852 240.936C412.188 241.057 412.557 241.118 412.958 241.118C413.565 241.118 414.073 240.992 414.484 240.74C414.895 240.488 415.231 240.129 415.492 239.662L416.472 240.236C416.08 240.843 415.604 241.314 415.044 241.65C414.484 241.986 413.789 242.154 412.958 242.154ZM412.916 235.308C412.552 235.308 412.211 235.369 411.894 235.49C411.586 235.602 411.311 235.765 411.068 235.98C410.825 236.185 410.62 236.433 410.452 236.722C410.293 237.002 410.181 237.31 410.116 237.646H415.59C415.497 236.927 415.212 236.358 414.736 235.938C414.26 235.518 413.653 235.308 412.916 235.308ZM425.898 242.154C425.338 242.154 424.801 242.033 424.288 241.79C423.774 241.538 423.368 241.174 423.07 240.698V244.912H421.936V234.44H423.056V235.826C423.205 235.583 423.382 235.369 423.588 235.182C423.802 234.986 424.036 234.823 424.288 234.692C424.54 234.561 424.801 234.463 425.072 234.398C425.352 234.323 425.632 234.286 425.912 234.286C426.434 234.286 426.929 234.384 427.396 234.58C427.862 234.767 428.268 235.037 428.614 235.392C428.968 235.737 429.244 236.153 429.44 236.638C429.645 237.114 429.748 237.641 429.748 238.22C429.748 238.799 429.645 239.331 429.44 239.816C429.244 240.292 428.973 240.707 428.628 241.062C428.282 241.407 427.872 241.678 427.396 241.874C426.929 242.061 426.43 242.154 425.898 242.154ZM425.8 241.076C426.192 241.076 426.556 241.006 426.892 240.866C427.237 240.717 427.536 240.516 427.788 240.264C428.04 240.003 428.236 239.699 428.376 239.354C428.516 238.999 428.586 238.617 428.586 238.206C428.586 237.805 428.516 237.431 428.376 237.086C428.236 236.731 428.04 236.428 427.788 236.176C427.536 235.915 427.237 235.709 426.892 235.56C426.556 235.411 426.192 235.336 425.8 235.336C425.398 235.336 425.025 235.415 424.68 235.574C424.334 235.723 424.036 235.929 423.784 236.19C423.532 236.442 423.331 236.745 423.182 237.1C423.042 237.445 422.972 237.814 422.972 238.206C422.972 238.607 423.042 238.985 423.182 239.34C423.331 239.685 423.532 239.989 423.784 240.25C424.036 240.502 424.334 240.703 424.68 240.852C425.025 241.001 425.398 241.076 425.8 241.076ZM433.72 242.154C433.272 242.154 432.88 242.098 432.544 241.986C432.208 241.865 431.928 241.701 431.704 241.496C431.48 241.291 431.312 241.057 431.2 240.796C431.088 240.525 431.032 240.236 431.032 239.928C431.032 239.144 431.335 238.542 431.942 238.122C432.558 237.693 433.398 237.478 434.462 237.478H436.856V237.184C436.856 236.605 436.669 236.143 436.296 235.798C435.932 235.443 435.381 235.266 434.644 235.266C434.075 235.266 433.594 235.378 433.202 235.602C432.819 235.826 432.497 236.139 432.236 236.54L431.242 235.91C431.625 235.415 432.091 235.023 432.642 234.734C433.193 234.435 433.865 234.286 434.658 234.286C435.199 234.286 435.675 234.356 436.086 234.496C436.497 234.636 436.842 234.837 437.122 235.098C437.402 235.35 437.612 235.653 437.752 236.008C437.901 236.363 437.976 236.755 437.976 237.184V242H436.856V240.67C436.52 241.137 436.077 241.501 435.526 241.762C434.975 242.023 434.373 242.154 433.72 242.154ZM433.93 241.146C434.21 241.146 434.49 241.109 434.77 241.034C435.059 240.959 435.33 240.852 435.582 240.712C435.843 240.572 436.081 240.395 436.296 240.18C436.52 239.965 436.707 239.718 436.856 239.438V238.402H434.518C433.725 238.402 433.141 238.523 432.768 238.766C432.395 239.009 432.208 239.368 432.208 239.844C432.208 240.217 432.343 240.53 432.614 240.782C432.894 241.025 433.333 241.146 433.93 241.146ZM443.498 242.154C442.966 242.154 442.462 242.061 441.986 241.874C441.519 241.678 441.113 241.407 440.768 241.062C440.422 240.707 440.147 240.292 439.942 239.816C439.746 239.331 439.648 238.799 439.648 238.22C439.648 237.641 439.746 237.114 439.942 236.638C440.147 236.153 440.422 235.737 440.768 235.392C441.122 235.037 441.533 234.767 442 234.58C442.476 234.384 442.98 234.286 443.512 234.286C443.782 234.286 444.053 234.323 444.324 234.398C444.604 234.463 444.865 234.561 445.108 234.692C445.36 234.813 445.588 234.972 445.794 235.168C446.008 235.355 446.19 235.565 446.34 235.798V234.44H447.488V241.314C447.488 241.902 447.39 242.434 447.194 242.91C447.007 243.395 446.741 243.806 446.396 244.142C446.06 244.478 445.654 244.735 445.178 244.912C444.711 245.099 444.193 245.192 443.624 245.192C442.737 245.192 442.009 245.052 441.44 244.772C440.88 244.501 440.404 244.114 440.012 243.61L440.964 242.854C441.113 243.069 441.272 243.255 441.44 243.414C441.617 243.573 441.808 243.703 442.014 243.806C442.228 243.918 442.466 244.002 442.728 244.058C442.989 244.114 443.283 244.142 443.61 244.142C444.03 244.142 444.408 244.077 444.744 243.946C445.08 243.815 445.364 243.629 445.598 243.386C445.84 243.143 446.027 242.849 446.158 242.504C446.288 242.168 446.354 241.785 446.354 241.356V240.614C446.204 240.857 446.022 241.076 445.808 241.272C445.593 241.459 445.36 241.617 445.108 241.748C444.865 241.879 444.604 241.977 444.324 242.042C444.053 242.117 443.778 242.154 443.498 242.154ZM443.596 241.076C443.997 241.076 444.37 241.001 444.716 240.852C445.061 240.703 445.36 240.502 445.612 240.25C445.864 239.989 446.06 239.685 446.2 239.34C446.34 238.985 446.41 238.607 446.41 238.206C446.41 237.814 446.34 237.445 446.2 237.1C446.06 236.745 445.864 236.442 445.612 236.19C445.36 235.929 445.061 235.723 444.716 235.574C444.37 235.415 443.997 235.336 443.596 235.336C443.204 235.336 442.835 235.411 442.49 235.56C442.154 235.709 441.86 235.915 441.608 236.176C441.356 236.428 441.16 236.731 441.02 237.086C440.88 237.431 440.81 237.805 440.81 238.206C440.81 238.617 440.88 238.999 441.02 239.354C441.16 239.699 441.356 240.003 441.608 240.264C441.86 240.516 442.154 240.717 442.49 240.866C442.835 241.006 443.204 241.076 443.596 241.076ZM453.194 242.154C452.588 242.154 452.037 242.056 451.542 241.86C451.057 241.655 450.637 241.379 450.282 241.034C449.937 240.679 449.671 240.264 449.484 239.788C449.298 239.312 449.204 238.799 449.204 238.248C449.204 237.688 449.302 237.17 449.498 236.694C449.704 236.209 449.979 235.789 450.324 235.434C450.679 235.079 451.094 234.799 451.57 234.594C452.056 234.389 452.583 234.286 453.152 234.286C453.703 234.286 454.212 234.384 454.678 234.58C455.154 234.767 455.56 235.033 455.896 235.378C456.242 235.714 456.512 236.12 456.708 236.596C456.904 237.063 457.002 237.576 457.002 238.136V238.654H450.324C450.362 239.018 450.46 239.349 450.618 239.648C450.777 239.947 450.978 240.208 451.22 240.432C451.472 240.647 451.762 240.815 452.088 240.936C452.424 241.057 452.793 241.118 453.194 241.118C453.801 241.118 454.31 240.992 454.72 240.74C455.131 240.488 455.467 240.129 455.728 239.662L456.708 240.236C456.316 240.843 455.84 241.314 455.28 241.65C454.72 241.986 454.025 242.154 453.194 242.154ZM453.152 235.308C452.788 235.308 452.448 235.369 452.13 235.49C451.822 235.602 451.547 235.765 451.304 235.98C451.062 236.185 450.856 236.433 450.688 236.722C450.53 237.002 450.418 237.31 450.352 237.646H455.826C455.733 236.927 455.448 236.358 454.972 235.938C454.496 235.518 453.89 235.308 453.152 235.308ZM462.802 244.674C462.429 244.674 462.083 244.613 461.766 244.492C461.449 244.371 461.178 244.207 460.954 244.002L461.696 243.064C461.845 243.223 462.004 243.349 462.172 243.442C462.34 243.535 462.545 243.582 462.788 243.582C462.984 243.582 463.157 243.559 463.306 243.512C463.465 243.465 463.609 243.381 463.74 243.26C463.88 243.139 464.011 242.975 464.132 242.77C464.253 242.565 464.384 242.308 464.524 242L464.692 241.636L461.528 234.44H462.774L465.308 240.292L467.716 234.44H468.962L465.532 242.336C465.345 242.756 465.159 243.115 464.972 243.414C464.795 243.713 464.599 243.955 464.384 244.142C464.169 244.329 463.931 244.464 463.67 244.548C463.418 244.632 463.129 244.674 462.802 244.674ZM473.495 242.154C472.935 242.154 472.417 242.056 471.941 241.86C471.465 241.655 471.05 241.375 470.695 241.02C470.35 240.665 470.075 240.25 469.869 239.774C469.673 239.298 469.575 238.78 469.575 238.22C469.575 237.669 469.673 237.156 469.869 236.68C470.075 236.195 470.355 235.775 470.709 235.42C471.064 235.065 471.479 234.79 471.955 234.594C472.431 234.389 472.945 234.286 473.495 234.286C474.046 234.286 474.559 234.389 475.035 234.594C475.521 234.79 475.941 235.065 476.295 235.42C476.65 235.775 476.925 236.195 477.121 236.68C477.327 237.156 477.429 237.669 477.429 238.22C477.429 238.771 477.327 239.284 477.121 239.76C476.925 240.236 476.65 240.651 476.295 241.006C475.941 241.361 475.525 241.641 475.049 241.846C474.573 242.051 474.055 242.154 473.495 242.154ZM473.495 241.062C473.887 241.062 474.251 240.992 474.587 240.852C474.933 240.703 475.227 240.502 475.469 240.25C475.721 239.989 475.917 239.685 476.057 239.34C476.197 238.995 476.267 238.621 476.267 238.22C476.267 237.819 476.197 237.445 476.057 237.1C475.917 236.745 475.721 236.442 475.469 236.19C475.217 235.929 474.923 235.728 474.587 235.588C474.251 235.439 473.887 235.364 473.495 235.364C473.103 235.364 472.739 235.439 472.403 235.588C472.067 235.728 471.773 235.929 471.521 236.19C471.279 236.442 471.087 236.745 470.947 237.1C470.807 237.445 470.737 237.819 470.737 238.22C470.737 238.631 470.807 239.009 470.947 239.354C471.087 239.699 471.279 239.998 471.521 240.25C471.773 240.502 472.067 240.703 472.403 240.852C472.739 240.992 473.103 241.062 473.495 241.062ZM482.262 242.154C481.226 242.154 480.437 241.855 479.896 241.258C479.354 240.651 479.084 239.811 479.084 238.738V234.44H480.246V238.682C480.246 239.419 480.432 240.007 480.806 240.446C481.179 240.885 481.73 241.104 482.458 241.104C482.794 241.104 483.102 241.043 483.382 240.922C483.662 240.801 483.904 240.633 484.11 240.418C484.324 240.194 484.488 239.933 484.6 239.634C484.721 239.326 484.782 238.99 484.782 238.626V234.44H485.93V242H484.81V240.754C484.558 241.174 484.212 241.515 483.774 241.776C483.344 242.028 482.84 242.154 482.262 242.154ZM490.843 234.44H492.047L493.951 240.432L496.261 234.44H497.325L499.579 240.39L501.553 234.44H502.743L500.125 242H499.089L496.765 236.008L494.441 242H493.321L490.843 234.44ZM507.54 242.154C506.933 242.154 506.383 242.056 505.888 241.86C505.403 241.655 504.983 241.379 504.628 241.034C504.283 240.679 504.017 240.264 503.83 239.788C503.643 239.312 503.55 238.799 503.55 238.248C503.55 237.688 503.648 237.17 503.844 236.694C504.049 236.209 504.325 235.789 504.67 235.434C505.025 235.079 505.44 234.799 505.916 234.594C506.401 234.389 506.929 234.286 507.498 234.286C508.049 234.286 508.557 234.384 509.024 234.58C509.5 234.767 509.906 235.033 510.242 235.378C510.587 235.714 510.858 236.12 511.054 236.596C511.25 237.063 511.348 237.576 511.348 238.136V238.654H504.67C504.707 239.018 504.805 239.349 504.964 239.648C505.123 239.947 505.323 240.208 505.566 240.432C505.818 240.647 506.107 240.815 506.434 240.936C506.77 241.057 507.139 241.118 507.54 241.118C508.147 241.118 508.655 240.992 509.066 240.74C509.477 240.488 509.813 240.129 510.074 239.662L511.054 240.236C510.662 240.843 510.186 241.314 509.626 241.65C509.066 241.986 508.371 242.154 507.54 242.154ZM507.498 235.308C507.134 235.308 506.793 235.369 506.476 235.49C506.168 235.602 505.893 235.765 505.65 235.98C505.407 236.185 505.202 236.433 505.034 236.722C504.875 237.002 504.763 237.31 504.698 237.646H510.172C510.079 236.927 509.794 236.358 509.318 235.938C508.842 235.518 508.235 235.308 507.498 235.308ZM513.072 234.44H514.178V235.868C514.337 235.364 514.598 234.981 514.962 234.72C515.336 234.459 515.793 234.328 516.334 234.328C516.876 234.328 517.296 234.421 517.594 234.608L517.118 235.7C517.016 235.625 516.885 235.569 516.726 235.532C516.577 235.485 516.4 235.462 516.194 235.462C515.56 235.462 515.07 235.653 514.724 236.036C514.379 236.409 514.206 237.016 514.206 237.856V242H513.072V234.44ZM521.991 242.154C521.384 242.154 520.834 242.056 520.339 241.86C519.854 241.655 519.434 241.379 519.079 241.034C518.734 240.679 518.468 240.264 518.281 239.788C518.094 239.312 518.001 238.799 518.001 238.248C518.001 237.688 518.099 237.17 518.295 236.694C518.5 236.209 518.776 235.789 519.121 235.434C519.476 235.079 519.891 234.799 520.367 234.594C520.852 234.389 521.38 234.286 521.949 234.286C522.5 234.286 523.008 234.384 523.475 234.58C523.951 234.767 524.357 235.033 524.693 235.378C525.038 235.714 525.309 236.12 525.505 236.596C525.701 237.063 525.799 237.576 525.799 238.136V238.654H519.121C519.158 239.018 519.256 239.349 519.415 239.648C519.574 239.947 519.774 240.208 520.017 240.432C520.269 240.647 520.558 240.815 520.885 240.936C521.221 241.057 521.59 241.118 521.991 241.118C522.598 241.118 523.106 240.992 523.517 240.74C523.928 240.488 524.264 240.129 524.525 239.662L525.505 240.236C525.113 240.843 524.637 241.314 524.077 241.65C523.517 241.986 522.822 242.154 521.991 242.154ZM521.949 235.308C521.585 235.308 521.244 235.369 520.927 235.49C520.619 235.602 520.344 235.765 520.101 235.98C519.858 236.185 519.653 236.433 519.485 236.722C519.326 237.002 519.214 237.31 519.149 237.646H524.623C524.53 236.927 524.245 236.358 523.769 235.938C523.293 235.518 522.686 235.308 521.949 235.308ZM327.09 266.154C326.259 266.154 325.568 266.014 325.018 265.734C324.467 265.445 324.024 265.057 323.688 264.572L324.682 263.9C324.943 264.273 325.27 264.572 325.662 264.796C326.054 265.02 326.539 265.132 327.118 265.132C327.706 265.132 328.149 265.011 328.448 264.768C328.756 264.516 328.91 264.199 328.91 263.816C328.91 263.611 328.849 263.443 328.728 263.312C328.606 263.172 328.448 263.06 328.252 262.976C328.056 262.883 327.827 262.808 327.566 262.752C327.314 262.696 327.048 262.64 326.768 262.584C326.441 262.519 326.114 262.444 325.788 262.36C325.47 262.276 325.186 262.159 324.934 262.01C324.682 261.851 324.476 261.651 324.318 261.408C324.159 261.165 324.08 260.853 324.08 260.47C324.08 260.181 324.14 259.901 324.262 259.63C324.392 259.359 324.574 259.126 324.808 258.93C325.05 258.725 325.344 258.566 325.69 258.454C326.044 258.333 326.446 258.272 326.894 258.272C327.594 258.272 328.186 258.393 328.672 258.636C329.166 258.869 329.582 259.196 329.918 259.616L328.966 260.26C328.742 259.961 328.462 259.719 328.126 259.532C327.79 259.345 327.379 259.252 326.894 259.252C326.306 259.252 325.886 259.364 325.634 259.588C325.382 259.812 325.256 260.101 325.256 260.456C325.256 260.652 325.307 260.815 325.41 260.946C325.522 261.067 325.671 261.17 325.858 261.254C326.044 261.338 326.264 261.408 326.516 261.464C326.768 261.52 327.043 261.576 327.342 261.632C327.668 261.697 327.995 261.777 328.322 261.87C328.648 261.954 328.938 262.075 329.19 262.234C329.451 262.393 329.661 262.598 329.82 262.85C329.988 263.093 330.072 263.41 330.072 263.802C330.072 264.101 330.006 264.395 329.876 264.684C329.754 264.964 329.568 265.216 329.316 265.44C329.073 265.655 328.765 265.827 328.392 265.958C328.018 266.089 327.584 266.154 327.09 266.154ZM335.356 266.154C334.75 266.154 334.199 266.056 333.704 265.86C333.219 265.655 332.799 265.379 332.444 265.034C332.099 264.679 331.833 264.264 331.646 263.788C331.46 263.312 331.366 262.799 331.366 262.248C331.366 261.688 331.464 261.17 331.66 260.694C331.866 260.209 332.141 259.789 332.486 259.434C332.841 259.079 333.256 258.799 333.732 258.594C334.218 258.389 334.745 258.286 335.314 258.286C335.865 258.286 336.374 258.384 336.84 258.58C337.316 258.767 337.722 259.033 338.058 259.378C338.404 259.714 338.674 260.12 338.87 260.596C339.066 261.063 339.164 261.576 339.164 262.136V262.654H332.486C332.524 263.018 332.622 263.349 332.78 263.648C332.939 263.947 333.14 264.208 333.382 264.432C333.634 264.647 333.924 264.815 334.25 264.936C334.586 265.057 334.955 265.118 335.356 265.118C335.963 265.118 336.472 264.992 336.882 264.74C337.293 264.488 337.629 264.129 337.89 263.662L338.87 264.236C338.478 264.843 338.002 265.314 337.442 265.65C336.882 265.986 336.187 266.154 335.356 266.154ZM335.314 259.308C334.95 259.308 334.61 259.369 334.292 259.49C333.984 259.602 333.709 259.765 333.466 259.98C333.224 260.185 333.018 260.433 332.85 260.722C332.692 261.002 332.58 261.31 332.514 261.646H337.988C337.895 260.927 337.61 260.358 337.134 259.938C336.658 259.518 336.052 259.308 335.314 259.308ZM343.144 266.154C342.696 266.154 342.304 266.098 341.968 265.986C341.632 265.865 341.352 265.701 341.128 265.496C340.904 265.291 340.736 265.057 340.624 264.796C340.512 264.525 340.456 264.236 340.456 263.928C340.456 263.144 340.759 262.542 341.366 262.122C341.982 261.693 342.822 261.478 343.886 261.478H346.28V261.184C346.28 260.605 346.093 260.143 345.72 259.798C345.356 259.443 344.805 259.266 344.068 259.266C343.499 259.266 343.018 259.378 342.626 259.602C342.243 259.826 341.921 260.139 341.66 260.54L340.666 259.91C341.049 259.415 341.515 259.023 342.066 258.734C342.617 258.435 343.289 258.286 344.082 258.286C344.623 258.286 345.099 258.356 345.51 258.496C345.921 258.636 346.266 258.837 346.546 259.098C346.826 259.35 347.036 259.653 347.176 260.008C347.325 260.363 347.4 260.755 347.4 261.184V266H346.28V264.67C345.944 265.137 345.501 265.501 344.95 265.762C344.399 266.023 343.797 266.154 343.144 266.154ZM343.354 265.146C343.634 265.146 343.914 265.109 344.194 265.034C344.483 264.959 344.754 264.852 345.006 264.712C345.267 264.572 345.505 264.395 345.72 264.18C345.944 263.965 346.131 263.718 346.28 263.438V262.402H343.942C343.149 262.402 342.565 262.523 342.192 262.766C341.819 263.009 341.632 263.368 341.632 263.844C341.632 264.217 341.767 264.53 342.038 264.782C342.318 265.025 342.757 265.146 343.354 265.146ZM349.393 258.44H350.499V259.868C350.657 259.364 350.919 258.981 351.283 258.72C351.656 258.459 352.113 258.328 352.655 258.328C353.196 258.328 353.616 258.421 353.915 258.608L353.439 259.7C353.336 259.625 353.205 259.569 353.047 259.532C352.897 259.485 352.72 259.462 352.515 259.462C351.88 259.462 351.39 259.653 351.045 260.036C350.699 260.409 350.527 261.016 350.527 261.856V266H349.393V258.44ZM358.283 266.154C357.723 266.154 357.201 266.051 356.715 265.846C356.23 265.641 355.81 265.361 355.455 265.006C355.101 264.651 354.821 264.236 354.615 263.76C354.419 263.284 354.321 262.771 354.321 262.22C354.321 261.66 354.424 261.142 354.629 260.666C354.835 260.181 355.115 259.765 355.469 259.42C355.824 259.065 356.239 258.79 356.715 258.594C357.201 258.389 357.719 258.286 358.269 258.286C358.68 258.286 359.067 258.342 359.431 258.454C359.805 258.566 360.145 258.725 360.453 258.93C360.761 259.126 361.032 259.369 361.265 259.658C361.508 259.938 361.699 260.246 361.839 260.582L360.789 261.044C360.565 260.521 360.234 260.111 359.795 259.812C359.357 259.513 358.843 259.364 358.255 259.364C357.863 259.364 357.495 259.439 357.149 259.588C356.813 259.737 356.519 259.943 356.267 260.204C356.015 260.456 355.819 260.759 355.679 261.114C355.539 261.459 355.469 261.828 355.469 262.22C355.469 262.612 355.539 262.981 355.679 263.326C355.829 263.671 356.029 263.975 356.281 264.236C356.533 264.497 356.832 264.703 357.177 264.852C357.523 265.001 357.896 265.076 358.297 265.076C358.913 265.076 359.431 264.913 359.851 264.586C360.281 264.25 360.603 263.83 360.817 263.326L361.881 263.774C361.583 264.474 361.125 265.048 360.509 265.496C359.903 265.935 359.161 266.154 358.283 266.154ZM363.502 254.968H364.636V259.658C364.907 259.238 365.266 258.907 365.714 258.664C366.162 258.412 366.676 258.286 367.254 258.286C367.749 258.286 368.192 258.365 368.584 258.524C368.986 258.673 369.326 258.897 369.606 259.196C369.886 259.485 370.101 259.84 370.25 260.26C370.4 260.68 370.474 261.156 370.474 261.688V266H369.298V261.744C369.298 261.007 369.102 260.419 368.71 259.98C368.328 259.541 367.763 259.322 367.016 259.322C366.68 259.322 366.368 259.383 366.078 259.504C365.798 259.625 365.551 259.798 365.336 260.022C365.122 260.237 364.954 260.498 364.832 260.806C364.711 261.105 364.65 261.436 364.65 261.8V266H363.502V254.968ZM372.471 258.44H373.633V266H372.471V258.44ZM372.149 256.116C372.149 255.855 372.233 255.64 372.401 255.472C372.579 255.295 372.793 255.206 373.045 255.206C373.316 255.206 373.535 255.295 373.703 255.472C373.871 255.64 373.955 255.855 373.955 256.116C373.955 256.377 373.871 256.597 373.703 256.774C373.535 256.942 373.316 257.026 373.045 257.026C372.784 257.026 372.569 256.942 372.401 256.774C372.233 256.597 372.149 256.377 372.149 256.116ZM375.67 258.44H376.79V259.7C377.051 259.28 377.406 258.939 377.854 258.678C378.311 258.417 378.834 258.286 379.422 258.286C379.917 258.286 380.36 258.365 380.752 258.524C381.153 258.673 381.494 258.897 381.774 259.196C382.054 259.485 382.269 259.84 382.418 260.26C382.567 260.68 382.642 261.156 382.642 261.688V266H381.48V261.744C381.48 261.007 381.284 260.419 380.892 259.98C380.5 259.541 379.935 259.322 379.198 259.322C378.862 259.322 378.549 259.383 378.26 259.504C377.971 259.625 377.719 259.798 377.504 260.022C377.289 260.237 377.121 260.498 377 260.806C376.879 261.105 376.818 261.436 376.818 261.8V266H375.67V258.44ZM388.181 266.154C387.649 266.154 387.145 266.061 386.669 265.874C386.203 265.678 385.797 265.407 385.451 265.062C385.106 264.707 384.831 264.292 384.625 263.816C384.429 263.331 384.331 262.799 384.331 262.22C384.331 261.641 384.429 261.114 384.625 260.638C384.831 260.153 385.106 259.737 385.451 259.392C385.806 259.037 386.217 258.767 386.683 258.58C387.159 258.384 387.663 258.286 388.195 258.286C388.466 258.286 388.737 258.323 389.007 258.398C389.287 258.463 389.549 258.561 389.791 258.692C390.043 258.813 390.272 258.972 390.477 259.168C390.692 259.355 390.874 259.565 391.023 259.798V258.44H392.171V265.314C392.171 265.902 392.073 266.434 391.877 266.91C391.691 267.395 391.425 267.806 391.079 268.142C390.743 268.478 390.337 268.735 389.861 268.912C389.395 269.099 388.877 269.192 388.307 269.192C387.421 269.192 386.693 269.052 386.123 268.772C385.563 268.501 385.087 268.114 384.695 267.61L385.647 266.854C385.797 267.069 385.955 267.255 386.123 267.414C386.301 267.573 386.492 267.703 386.697 267.806C386.912 267.918 387.15 268.002 387.411 268.058C387.673 268.114 387.967 268.142 388.293 268.142C388.713 268.142 389.091 268.077 389.427 267.946C389.763 267.815 390.048 267.629 390.281 267.386C390.524 267.143 390.711 266.849 390.841 266.504C390.972 266.168 391.037 265.785 391.037 265.356V264.614C390.888 264.857 390.706 265.076 390.491 265.272C390.277 265.459 390.043 265.617 389.791 265.748C389.549 265.879 389.287 265.977 389.007 266.042C388.737 266.117 388.461 266.154 388.181 266.154ZM388.279 265.076C388.681 265.076 389.054 265.001 389.399 264.852C389.745 264.703 390.043 264.502 390.295 264.25C390.547 263.989 390.743 263.685 390.883 263.34C391.023 262.985 391.093 262.607 391.093 262.206C391.093 261.814 391.023 261.445 390.883 261.1C390.743 260.745 390.547 260.442 390.295 260.19C390.043 259.929 389.745 259.723 389.399 259.574C389.054 259.415 388.681 259.336 388.279 259.336C387.887 259.336 387.519 259.411 387.173 259.56C386.837 259.709 386.543 259.915 386.291 260.176C386.039 260.428 385.843 260.731 385.703 261.086C385.563 261.431 385.493 261.805 385.493 262.206C385.493 262.617 385.563 262.999 385.703 263.354C385.843 263.699 386.039 264.003 386.291 264.264C386.543 264.516 386.837 264.717 387.173 264.866C387.519 265.006 387.887 265.076 388.279 265.076ZM396.969 258.44H398.369V257.852C398.369 257.292 398.411 256.825 398.495 256.452C398.588 256.079 398.742 255.785 398.957 255.57C399.172 255.346 399.461 255.192 399.825 255.108C400.198 255.015 400.66 254.968 401.211 254.968H401.561V256.046H401.295C400.912 256.046 400.6 256.069 400.357 256.116C400.124 256.153 399.942 256.237 399.811 256.368C399.69 256.499 399.606 256.685 399.559 256.928C399.522 257.161 399.503 257.474 399.503 257.866V258.44H401.561V259.462H399.503V266H398.369V259.462H396.969V258.44ZM406.079 266.154C405.519 266.154 405.001 266.056 404.525 265.86C404.049 265.655 403.634 265.375 403.279 265.02C402.934 264.665 402.659 264.25 402.453 263.774C402.257 263.298 402.159 262.78 402.159 262.22C402.159 261.669 402.257 261.156 402.453 260.68C402.659 260.195 402.939 259.775 403.293 259.42C403.648 259.065 404.063 258.79 404.539 258.594C405.015 258.389 405.529 258.286 406.079 258.286C406.63 258.286 407.143 258.389 407.619 258.594C408.105 258.79 408.525 259.065 408.879 259.42C409.234 259.775 409.509 260.195 409.705 260.68C409.911 261.156 410.013 261.669 410.013 262.22C410.013 262.771 409.911 263.284 409.705 263.76C409.509 264.236 409.234 264.651 408.879 265.006C408.525 265.361 408.109 265.641 407.633 265.846C407.157 266.051 406.639 266.154 406.079 266.154ZM406.079 265.062C406.471 265.062 406.835 264.992 407.171 264.852C407.517 264.703 407.811 264.502 408.053 264.25C408.305 263.989 408.501 263.685 408.641 263.34C408.781 262.995 408.851 262.621 408.851 262.22C408.851 261.819 408.781 261.445 408.641 261.1C408.501 260.745 408.305 260.442 408.053 260.19C407.801 259.929 407.507 259.728 407.171 259.588C406.835 259.439 406.471 259.364 406.079 259.364C405.687 259.364 405.323 259.439 404.987 259.588C404.651 259.728 404.357 259.929 404.105 260.19C403.863 260.442 403.671 260.745 403.531 261.1C403.391 261.445 403.321 261.819 403.321 262.22C403.321 262.631 403.391 263.009 403.531 263.354C403.671 263.699 403.863 263.998 404.105 264.25C404.357 264.502 404.651 264.703 404.987 264.852C405.323 264.992 405.687 265.062 406.079 265.062ZM411.737 258.44H412.843V259.868C413.001 259.364 413.263 258.981 413.627 258.72C414 258.459 414.457 258.328 414.999 258.328C415.54 258.328 415.96 258.421 416.259 258.608L415.783 259.7C415.68 259.625 415.549 259.569 415.391 259.532C415.241 259.485 415.064 259.462 414.859 259.462C414.224 259.462 413.734 259.653 413.389 260.036C413.043 260.409 412.871 261.016 412.871 261.856V266H411.737V258.44Z" fill="#202020"/>
</g>
<defs>
<clipPath id="clip0_3206_90710">
<rect width="740" height="499.5" fill="white" transform="translate(0 0.775391)"/>
</clipPath>
</defs>
</svg>
