<svg width="126" height="32" viewBox="0 0 126 32" fill="none" xmlns="http://www.w3.org/2000/svg">
<g clip-path="url(#clip0_1186_55313)">
<rect width="126" height="-32" transform="matrix(-1 0 0 1 126 32)" fill="white"/>
<path d="M19.4502 3.73242H3.48137C2.9451 3.73242 2.48828 4.4114 2.48828 5.23797V7.92434C2.48828 8.75092 2.9451 9.42989 3.48137 9.42989H19.4502C20.0063 9.42989 20.4433 8.75092 20.4631 7.92434V5.26749C20.4631 4.41139 20.0063 3.73242 19.4502 3.73242V3.73242ZM19.4502 18.6403H3.48137C3.22316 18.6403 2.96496 18.7879 2.78621 19.0831C2.58759 19.3783 2.48828 19.7326 2.48828 20.1459V22.8322C2.48828 23.6588 2.9451 24.3378 3.48137 24.3378H19.4502C20.0063 24.3378 20.4433 23.6883 20.4631 22.8322V20.1459C20.4433 19.2898 20.0063 18.6403 19.4502 18.6403V18.6403ZM12.4787 26.0795H3.48137C3.22316 26.0795 2.96496 26.2271 2.78621 26.5223C2.60745 26.8175 2.48828 27.1718 2.48828 27.585V30.2714C2.48828 31.098 2.9451 31.777 3.48137 31.777H12.4589C13.015 31.777 13.452 31.098 13.452 30.3009V27.6146C13.4718 26.7289 13.0349 26.05 12.4787 26.0795V26.0795ZM20.4631 11.1716H3.48137C3.22316 11.1716 2.96496 11.3192 2.78621 11.6144C2.60745 11.9096 2.48828 12.2639 2.48828 12.6772V15.3635C2.48828 16.1901 2.9451 16.8691 3.48137 16.8691H20.4433C20.9994 16.8691 21.4364 16.1901 21.4364 15.3635V12.6772C21.4562 11.8506 20.9994 11.2011 20.4631 11.1716V11.1716Z" fill="#00C3F7"/>
<path d="M39.0343 9.75498C38.5378 8.98744 37.9618 8.39703 37.3064 7.98374C36.6509 7.57045 35.9558 7.36381 35.2407 7.36381C34.5456 7.33429 33.8703 7.57045 33.2347 8.01326C32.8176 8.30847 32.4402 8.72176 32.1224 9.22361V8.75127C32.1224 8.51511 32.0629 8.27895 31.9636 8.10182C31.8642 7.9247 31.7053 7.80662 31.5266 7.80662H29.3219C29.163 7.80662 29.0042 7.89518 28.9048 8.10182C28.7857 8.27895 28.7261 8.51511 28.746 8.75127V30.8327C28.746 31.0688 28.8055 31.305 28.9048 31.4821C29.024 31.6592 29.163 31.7478 29.3219 31.7478H31.5862C31.7451 31.7478 31.8841 31.6592 32.0033 31.4821C32.1224 31.3345 32.2019 31.0983 32.182 30.8327V23.2754C32.4998 23.8068 32.9169 24.1905 33.3737 24.4267C33.9696 24.7514 34.5853 24.9285 35.2209 24.9285C35.9359 24.9285 36.6509 24.7219 37.3064 24.3086C37.9618 23.8953 38.5576 23.3049 39.0542 22.5374C39.5706 21.7403 39.9678 20.7957 40.2459 19.7624C40.5637 18.6111 40.7027 17.3713 40.6828 16.1314C40.7027 14.8916 40.5438 13.6517 40.2459 12.4709C39.948 11.4967 39.5507 10.552 39.0343 9.75498V9.75498ZM37.0084 17.7551C36.8893 18.2274 36.7105 18.6407 36.4722 19.0244C36.0153 19.7624 35.3599 20.1757 34.6846 20.1757C34.347 20.1757 34.0093 20.0872 33.6915 19.851C33.3936 19.6444 33.1155 19.3787 32.8772 19.0244C32.6388 18.6702 32.4601 18.2274 32.3409 17.7551C32.0827 16.7514 32.0827 15.6591 32.3409 14.6554C32.4601 14.1831 32.6587 13.7698 32.8772 13.4155C33.1155 13.0613 33.3936 12.7661 33.6915 12.5594C34.0093 12.3528 34.347 12.2347 34.6846 12.2347C35.0421 12.2347 35.3599 12.3233 35.6976 12.5594C35.9955 12.7661 36.2735 13.0318 36.492 13.386C36.7304 13.7402 36.8893 14.1535 37.0283 14.6259C37.2666 15.6591 37.2468 16.7514 37.0084 17.7551ZM52.8184 7.83614H50.574C50.4151 7.83614 50.2562 7.9247 50.1569 8.10182C50.0377 8.27895 49.9781 8.51511 49.9781 8.7808V9.19408C49.7001 8.69223 49.3426 8.30847 48.9652 8.04278C48.3495 7.59997 47.6742 7.39333 46.9989 7.39333C45.549 7.39333 44.1785 8.24943 43.1457 9.75498C42.6094 10.552 42.1923 11.4967 41.9143 12.5299C41.5965 13.6812 41.4376 14.9211 41.4575 16.1905C41.4376 17.4303 41.5965 18.6702 41.9143 19.851C42.2122 20.8842 42.6094 21.8289 43.1457 22.6259C44.1586 24.161 45.549 25.0171 46.979 25.0171C47.6543 25.0466 48.3296 24.8105 48.9453 24.3677C49.3227 24.0725 49.7001 23.6887 49.9781 23.2164V23.6592C49.9781 23.8953 50.0377 24.1315 50.1569 24.3086C50.2761 24.4562 50.4151 24.5743 50.574 24.5743H52.8184C52.9773 24.5743 53.1361 24.4857 53.2355 24.3086C53.3546 24.1315 53.4142 23.8953 53.4142 23.6592V8.81031C53.4142 8.57415 53.3546 8.33799 53.2553 8.16086C53.1361 7.95422 52.9773 7.83614 52.8184 7.83614V7.83614ZM49.7795 17.7551C49.6603 18.2274 49.4816 18.6407 49.2432 19.0244C49.0049 19.3787 48.7467 19.6739 48.4488 19.8805C47.8132 20.3233 47.0783 20.3233 46.4427 19.8805C46.1448 19.6739 45.8668 19.3787 45.6284 19.0244C45.3901 18.6702 45.2113 18.2274 45.0921 17.7551C44.8538 16.7514 44.8538 15.6591 45.0921 14.6554C45.2113 14.1831 45.3901 13.7993 45.6284 13.4155C45.8668 13.0613 46.125 12.7661 46.4427 12.5594C47.0783 12.1166 47.8132 12.1166 48.4289 12.5594C48.7268 12.7661 49.0049 13.0318 49.2234 13.386C49.4419 13.7402 49.6206 14.1535 49.7597 14.6259C50.0377 15.6591 50.0377 16.7514 49.7795 17.7551V17.7551ZM75.1827 15.7476C74.8649 15.3344 74.4875 14.9801 74.0903 14.744C73.6732 14.4783 73.2163 14.3011 72.7794 14.1535L71.0713 13.6517C70.6343 13.5336 70.3165 13.3565 70.1576 13.1498C70.0186 13.0022 69.9193 12.7661 69.9193 12.5004C69.9193 12.2347 70.0186 11.9985 70.2371 11.7919C70.535 11.5557 70.8528 11.4376 71.1905 11.4672C71.6274 11.4672 72.0644 11.6148 72.4616 11.8509C72.8588 12.1166 73.2362 12.3823 73.5937 12.7366C74.0903 13.2089 74.5272 13.1203 74.8251 12.589L75.6395 11.2015C75.7984 10.9653 75.8778 10.6701 75.8977 10.3454C75.8778 9.99114 75.7586 9.69594 75.5799 9.45977C75.2422 9.01696 74.6861 8.54463 73.9512 8.0723C73.2163 7.59997 72.2828 7.36381 71.1905 7.36381C70.5152 7.33429 69.8597 7.48189 69.2241 7.77709C68.6879 8.04278 68.1715 8.42655 67.7146 8.9284C67.2976 9.40073 66.9798 9.99114 66.7414 10.6996C66.5229 11.3786 66.4038 12.1166 66.4038 12.8546C66.4038 14.2421 66.6818 15.3639 67.238 16.1905C67.7941 17.017 68.529 17.5779 69.4426 17.8436L71.2302 18.434C71.6075 18.5226 72.0048 18.6997 72.3623 18.9654C72.5609 19.0835 72.6801 19.3787 72.6801 19.7034C72.6801 19.9986 72.5808 20.2643 72.3623 20.5005C72.1438 20.7366 71.7863 20.8842 71.3096 20.8842C70.8329 20.8842 70.3364 20.7366 69.8994 20.4119C69.4823 20.1167 69.105 19.7329 68.7475 19.2901C68.5886 19.113 68.4297 18.9654 68.2311 18.8473C68.0324 18.7587 67.7742 18.8473 67.516 19.172L66.5428 20.2643C66.2647 20.5595 66.1257 21.0614 66.2052 21.5337C66.2647 22.0355 66.5229 22.5079 67.0195 23.0688C68.2509 24.3086 69.7207 24.9581 71.2103 24.899C71.9055 24.899 72.6006 24.7809 73.2561 24.4857C73.8321 24.2201 74.3683 23.8363 74.845 23.3049C75.282 22.8326 75.6395 22.2127 75.8778 21.4746C76.1162 20.7661 76.2353 19.9986 76.2353 19.2016C76.2552 18.4931 76.1559 17.7846 75.9573 17.1351C75.7586 16.6628 75.5004 16.1609 75.1827 15.7476V15.7476ZM84.9944 19.792C84.895 19.5263 84.7163 19.3492 84.4978 19.2901C84.2992 19.2901 84.0807 19.3787 83.9218 19.5558C83.6437 19.8215 83.326 19.9691 83.0082 19.9986C82.9089 19.9986 82.7897 19.9691 82.6904 19.9396C82.5712 19.9101 82.4719 19.8215 82.3925 19.7034C82.2932 19.5558 82.2137 19.3787 82.1541 19.2016C82.0747 18.9064 82.035 18.6111 82.0548 18.3159V12.2642H84.9546C85.1334 12.2642 85.2923 12.1461 85.4114 11.969C85.5306 11.7919 85.6101 11.5852 85.6101 11.3196V8.75127C85.6101 8.48559 85.5505 8.24943 85.4114 8.10182C85.2923 7.9247 85.1334 7.83614 84.9745 7.83614H82.0548V3.70326C82.0548 3.46709 81.9952 3.20141 81.8761 3.0538C81.7569 2.9062 81.6179 2.81764 81.459 2.78812H79.1947C79.0358 2.78812 78.8769 2.87668 78.7578 3.0538C78.6386 3.23093 78.5592 3.46709 78.5592 3.70326V7.83614H77.2681C77.1092 7.83614 76.9504 7.9247 76.8312 8.13134C76.7319 8.30847 76.6723 8.54463 76.6723 8.7808V11.3491C76.6723 11.5852 76.7319 11.8214 76.8312 11.9985C76.9305 12.2052 77.0894 12.2937 77.2681 12.2937H78.5592V19.4968C78.5393 20.3529 78.6585 21.209 78.8968 21.9765C79.1153 22.6259 79.3933 23.1868 79.7707 23.6592C80.1282 24.102 80.5453 24.4267 81.0021 24.6038C81.459 24.8105 81.9356 24.9285 82.4123 24.9285C83.028 24.9285 83.6636 24.7809 84.2595 24.4857C84.8156 24.2201 85.3121 23.7477 85.7094 23.1278C85.9676 22.744 85.9874 22.1241 85.7888 21.6813L84.9944 19.792ZM97.2689 7.83614H95.0245C94.8656 7.83614 94.7266 7.9247 94.6074 8.10182C94.4883 8.27895 94.4287 8.51511 94.4287 8.7808V9.19408C94.1506 8.69223 93.813 8.30847 93.4157 8.04278C92.8 7.59997 92.1247 7.39333 91.4494 7.39333C89.9995 7.39333 88.629 8.24943 87.5962 9.75498C87.06 10.552 86.6429 11.4967 86.3648 12.5299C86.047 13.6812 85.8881 14.9211 85.908 16.1609C85.8881 17.4008 86.047 18.6407 86.3648 19.8215C86.6429 20.8547 87.0798 21.7994 87.5962 22.5964C88.6092 24.1315 89.9796 24.9876 91.4295 24.9876C92.1048 25.0171 92.7801 24.7809 93.3959 24.3677C93.7931 24.0725 94.1506 23.6887 94.4287 23.2164V23.6592C94.4287 23.8953 94.4883 24.1315 94.6074 24.2791C94.7266 24.4562 94.8656 24.5448 95.0245 24.5448H97.2689C97.6065 24.5448 97.8647 24.161 97.8647 23.6592V8.81031C97.8647 8.57415 97.8052 8.33799 97.7059 8.16086C97.6065 7.95422 97.4476 7.83614 97.2689 7.83614V7.83614ZM94.2499 17.7551C94.1307 18.2274 93.952 18.6407 93.7136 19.0244C93.4753 19.3787 93.2171 19.6739 92.9192 19.8805C92.6014 20.0872 92.2637 20.2053 91.9062 20.2053C91.5487 20.2053 91.2309 20.0872 90.9131 19.8805C90.6152 19.6739 90.3372 19.3787 90.0988 19.0244C89.8605 18.6702 89.6817 18.2274 89.5824 17.7551C89.3441 16.7514 89.3441 15.6591 89.5824 14.6554C89.7016 14.1831 89.8803 13.7698 90.0988 13.4155C90.3372 13.0613 90.6152 12.7661 90.9131 12.5594C91.2309 12.3528 91.5686 12.2347 91.9062 12.2347C92.2439 12.2347 92.5815 12.3233 92.9192 12.5594C93.2171 12.7661 93.4753 13.0318 93.7136 13.386C93.952 13.7402 94.1307 14.1535 94.2499 14.6259C94.5081 15.6296 94.5081 16.7514 94.2499 17.7551V17.7551ZM109.583 19.5558L108.292 18.0798C108.054 17.7846 107.815 17.696 107.617 17.8141C107.438 17.9322 107.279 18.1093 107.14 18.3159C106.862 18.8178 106.524 19.2606 106.167 19.6444C105.77 19.9691 105.353 20.1462 104.916 20.0872C104.399 20.0872 103.923 19.8805 103.505 19.4377C103.088 18.9949 102.771 18.4045 102.612 17.6665C102.493 17.1646 102.433 16.6628 102.433 16.1609C102.433 15.6296 102.493 15.1277 102.612 14.5963C102.731 14.124 102.89 13.7107 103.128 13.3565C103.366 13.0022 103.625 12.707 103.923 12.5299C104.24 12.3233 104.578 12.2052 104.936 12.2052C105.372 12.1757 105.809 12.3528 106.187 12.6775C106.564 13.0318 106.882 13.4746 107.16 14.0059C107.279 14.2126 107.438 14.3897 107.617 14.5078C107.815 14.6259 108.054 14.5373 108.292 14.2421L109.583 12.7956C109.742 12.648 109.861 12.4118 109.921 12.1461C110 11.8509 109.98 11.5262 109.861 11.2605C109.365 10.1092 108.689 9.16456 107.875 8.48559C107.021 7.7771 106.008 7.39333 104.876 7.39333C104.081 7.39333 103.287 7.62949 102.532 8.0723C101.817 8.51511 101.182 9.13504 100.645 9.9321C100.109 10.7292 99.6722 11.6738 99.3742 12.7366C98.7585 14.9506 98.7585 17.4303 99.3742 19.6444C99.6722 20.6776 100.089 21.6518 100.645 22.4193C101.778 24.0725 103.287 24.9581 104.876 24.9581C106.008 24.9581 107.021 24.5743 107.875 23.8658C108.689 23.1868 109.385 22.2422 109.881 21.0614C109.98 20.7957 110 20.4709 109.941 20.2053C109.861 19.9691 109.742 19.7329 109.583 19.5558V19.5558ZM121.54 23.0097L117.985 15.2753L121.024 9.31217C121.163 9.04648 121.222 8.66271 121.143 8.33799C121.083 8.10182 120.944 7.86566 120.567 7.86566H118.163C118.024 7.86566 117.885 7.9247 117.766 8.01326C117.607 8.13134 117.488 8.30846 117.409 8.51511L114.986 13.5631H114.41V1.63682C114.41 1.40065 114.35 1.16449 114.231 0.987363C114.112 0.81024 113.973 0.72168 113.814 0.72168H111.569C111.41 0.72168 111.252 0.81024 111.132 0.987363C111.013 1.16449 110.954 1.37113 110.954 1.63682V23.6296C110.954 23.8953 111.013 24.102 111.132 24.2791C111.252 24.4562 111.41 24.5448 111.569 24.5448H113.814C113.973 24.5448 114.131 24.4562 114.231 24.2791C114.35 24.102 114.41 23.8658 114.41 23.6296V17.8141H115.045L117.687 23.8363C117.846 24.2791 118.144 24.5448 118.461 24.5448H120.984C121.361 24.5448 121.52 24.2791 121.6 24.0429C121.699 23.6887 121.679 23.3049 121.54 23.0097V23.0097ZM65.5696 7.83614H63.0471C62.8485 7.83614 62.6698 7.9247 62.5307 8.13134C62.4116 8.30847 62.3321 8.51511 62.2924 8.75127L60.4254 19.0244H59.9686L57.9824 8.75127C57.9427 8.54463 57.8831 8.33799 57.7838 8.13134C57.6646 7.9247 57.5057 7.80662 57.327 7.80662H54.7648C54.4272 7.80662 54.2285 7.95422 54.1292 8.30847C54.0696 8.60367 54.0696 8.9284 54.1292 9.22361L57.3071 23.6887C57.3667 23.8953 57.4263 24.1315 57.5454 24.2791C57.6646 24.4562 57.8434 24.5448 58.0221 24.5448H59.3727L59.2536 25.0171L58.9556 26.3455C58.8563 26.7588 58.6974 27.1131 58.4591 27.3788C58.2406 27.6149 57.9824 27.7625 57.7043 27.733C57.466 27.733 57.2475 27.6444 57.029 27.5264C56.8106 27.3788 56.6119 27.2016 56.4332 26.995C56.2743 26.8179 56.0757 26.7293 55.8572 26.7293H55.8373C55.599 26.7588 55.3805 26.9359 55.2614 27.2607L54.4669 29.0024C54.1491 29.7699 54.3279 30.2422 54.5265 30.5079C54.9634 31.0983 55.46 31.5412 56.0161 31.8068C56.6318 32.1316 57.2674 32.2792 57.903 32.2792C59.0549 32.2792 60.0083 31.8068 60.7432 30.8917C61.4979 29.888 62.0739 28.5891 62.352 27.1131L66.0463 9.22361C66.1257 8.89888 66.1456 8.57415 66.0661 8.27895C66.0463 8.0723 65.9072 7.83614 65.5696 7.83614Z" fill="#011B33"/>
</g>
<defs>
<clipPath id="clip0_1186_55313">
<rect width="126" height="-32" fill="white" transform="matrix(-1 0 0 1 126 32)"/>
</clipPath>
</defs>
</svg>
